<?xml version="1.0" encoding="UTF-8"?>
<svg version="1.1" xmlns="http://www.w3.org/2000/svg" width="902" height="902">
<path d="M0 0 C297.66 0 595.32 0 902 0 C902 297.66 902 595.32 902 902 C604.34 902 306.68 902 0 902 C0 604.34 0 306.68 0 0 Z " fill="#FEFEFE" transform="translate(0,0)"/>
<path d="M0 0 C-2.13735153 7.47651086 -4.6870303 14.71800638 -7.47265625 21.9765625 C-7.90796158 23.11976456 -8.34326691 24.26296661 -8.79176331 25.44081116 C-9.9681877 28.52918035 -11.14754141 31.61641133 -12.32807159 34.70321274 C-14.32435619 39.9269136 -16.31185772 45.15396974 -18.30090332 50.38043022 C-19.06060143 52.37636848 -19.82070591 54.37215171 -20.58081055 56.36793518 C-26.00104654 70.60563437 -31.34019403 84.87357539 -36.66040039 99.14892578 C-42.6405847 115.15486321 -48.83007471 131.06102635 -55 147 C-14.08 147 26.84 147 69 147 C70.32 141.72 71.64 136.44 73 131 C77.95 115.16 82.9 99.32 88 83 C133.54 83 179.08 83 226 83 C235.405 114.185 235.405 114.185 245 146 C287.24 146 329.48 146 373 146 C373 230.48 373 314.96 373 402 C75.34 402 -222.32 402 -529 402 C-529 317.85 -529 233.7 -529 147 C-487.42 147 -445.84 147 -403 147 C-402.505 143.04 -402.505 143.04 -402 139 C-401.51379236 137.1461658 -400.97145809 135.30575753 -400.36328125 133.48828125 C-400.03610107 132.49320557 -399.7089209 131.49812988 -399.37182617 130.47290039 C-398.84745972 128.9085022 -398.84745972 128.9085022 -398.3125 127.3125 C-395.09195919 117.49430841 -392.1068028 107.64171503 -389.32421875 97.69140625 C-387.93748126 92.77851032 -386.46687049 87.88956831 -385 83 C-339.46 83 -293.92 83 -247 83 C-243.01056711 94.96829868 -239.07141625 106.79975707 -235.60595703 118.90429688 C-234.96759869 121.11205995 -234.31211946 123.3141718 -233.65234375 125.515625 C-233.31614014 126.64145996 -233.31614014 126.64145996 -232.97314453 127.79003906 C-232.55043255 129.2040778 -232.12580991 130.61754766 -231.69873047 132.03027344 C-230.21957614 137.00684437 -229.13395355 141.89720904 -228 147 C-185.1 147 -142.2 147 -98 147 C-98 98.82 -98 50.64 -98 1 C-76.2509375 0.7525 -76.2509375 0.7525 -54.0625 0.5 C-49.49801025 0.44779297 -44.93352051 0.39558594 -40.23071289 0.34179688 C-34.62194824 0.27832031 -34.62194824 0.27832031 -31.98948669 0.24865723 C-30.16571341 0.22801094 -28.34194237 0.2071652 -26.51817322 0.18615723 C-23.7426708 0.15422608 -20.96716171 0.12294409 -18.19165039 0.09179688 C-17.39024911 0.08242851 -16.58884783 0.07306015 -15.76316166 0.0634079 C-10.50845973 0.00532981 -5.25502827 -0.00768043 0 0 Z " fill="#FEFEFE" transform="translate(529,500)"/>
<path d="M0 0 C1.46979891 0.00138269 1.46979891 0.00138269 2.96929073 0.00279331 C4.64997646 0.00073132 4.64997646 0.00073132 6.36461544 -0.00137234 C7.60466839 0.00222294 8.84472134 0.00581821 10.12235165 0.00952244 C12.06840801 0.0093034 12.06840801 0.0093034 14.05377865 0.00907993 C17.62180117 0.00879197 21.18979036 0.01468851 24.75780511 0.02165389 C28.48274808 0.02788762 32.20769174 0.02849124 35.93263912 0.0296793 C42.99101551 0.03279256 50.04937648 0.04100587 57.10774606 0.05102879 C65.14147159 0.06219009 73.17519784 0.06770042 81.20892918 0.07272422 C97.73924245 0.08318849 114.2695402 0.10078783 130.79984188 0.12304783 C136.07974104 12.69995602 136.07974104 12.69995602 138.29520321 18.62597752 C138.72095638 19.76148045 139.14670956 20.89698338 139.58536434 22.06689548 C140.01321224 23.21464451 140.44106014 24.36239353 140.88187313 25.54492283 C141.28966 26.63369724 141.69744686 27.72247166 142.1175909 28.84423923 C143.61826576 32.8529353 145.11508719 36.86307307 146.61234188 40.87304783 C149.97421688 49.86554783 153.33609188 58.85804783 156.79984188 68.12304783 C157.12984188 45.68304783 157.45984188 23.24304783 157.79984188 0.12304783 C185.87809869 0.07779849 213.95632571 0.04099915 242.03460979 0.01942348 C255.07355466 0.00913665 268.11247516 -0.0048738 281.15140438 -0.02783108 C292.52389902 -0.04784466 303.896376 -0.06068742 315.26888776 -0.06512916 C321.28345728 -0.06772311 327.29797632 -0.07376526 333.31252956 -0.08841228 C338.98909612 -0.10212247 344.66559203 -0.10614804 350.34217358 -0.10316753 C352.4107505 -0.10371175 354.47933011 -0.10760831 356.54789257 -0.11536312 C373.18003391 -0.17458608 390.14247818 0.16987137 406.36234188 4.24804783 C407.22037411 4.45977634 408.07840633 4.67150486 408.96243954 4.88964939 C435.45530662 11.80083211 460.06460245 26.5292951 474.79984188 50.12304783 C485.30307758 68.22559849 491.87502502 89.07089951 492.00296688 110.08398533 C492.00866695 110.83281986 492.01436703 111.5816544 492.02023983 112.35318089 C492.02963933 113.93482164 492.03620358 115.51648154 492.04007626 117.09814548 C492.04967518 119.45708047 492.08070102 121.81510186 492.11234188 124.17382908 C492.34980691 158.14355661 480.64063999 188.93370004 456.79984188 213.12304783 C456.08312313 213.8526572 455.36640438 214.58226658 454.62796688 215.33398533 C426.45460664 242.13045203 384.34788586 246.53188093 347.37796688 246.31836033 C345.63106064 246.31540707 343.8841526 246.31337457 342.13724422 246.31225681 C335.77474918 246.30191811 329.41229241 246.27399733 323.04984188 246.24804783 C308.77734188 246.20679783 294.50484188 246.16554783 279.79984188 246.12304783 C279.79984188 294.30304783 279.79984188 342.48304783 279.79984188 392.12304783 C236.89984188 392.12304783 193.99984188 392.12304783 149.79984188 392.12304783 C145.35667092 379.90432768 145.35667092 379.90432768 143.98734188 374.37304783 C140.39614432 360.50506358 136.20424052 346.73967327 131.42874813 333.23242283 C130.79984188 331.12304783 130.79984188 331.12304783 130.79984188 328.12304783 C85.25984188 328.12304783 39.71984188 328.12304783 -7.20015812 328.12304783 C-7.53015812 330.43304783 -7.86015812 332.74304783 -8.20015812 335.12304783 C-8.8792146 337.53356306 -9.61229771 339.92926296 -10.38765812 342.31054783 C-10.84185023 343.72687273 -11.29492357 345.14355677 -11.74703312 346.56054783 C-11.98486515 347.30304783 -12.22269718 348.04554783 -12.46773624 348.81054783 C-17.01153939 363.15684895 -21.06673655 377.65607234 -25.20015812 392.12304783 C-66.45015812 392.12304783 -107.70015812 392.12304783 -150.20015812 392.12304783 C-142.16409411 369.16286494 -142.16409411 369.16286494 -139.50093937 362.18945408 C-139.18860355 361.36493244 -138.87626774 360.5404108 -138.5544672 359.69090366 C-137.88874182 357.93438254 -137.22189329 356.1782867 -136.5539484 354.42260838 C-135.46289934 351.55475548 -134.37501597 348.68571706 -133.2878046 345.8164072 C-131.72237654 341.6853698 -130.15592232 337.5547237 -128.58882999 333.42431736 C-125.04262267 324.07369783 -121.51318385 314.7167514 -117.9836359 305.35983372 C-116.74410706 302.07386937 -115.50426434 298.78802358 -114.2643671 295.50219822 C-104.57710055 269.82839723 -94.90341803 244.14947541 -85.22901249 218.47082615 C-81.37855595 208.25061752 -77.52776967 198.0305332 -73.67672062 187.81054783 C-73.13650346 186.37689816 -72.59628638 184.94324846 -72.05606937 183.50959873 C-69.62611533 177.06091669 -67.19610782 170.61225479 -64.7659626 164.16364479 C-63.41197062 160.57069515 -62.05800973 156.97773379 -60.70406437 153.38476658 C-60.43602686 152.67347788 -60.16798935 151.96218918 -59.89182949 151.22934628 C-56.08729327 141.13311064 -52.28443541 131.03624408 -48.4825964 120.9389925 C-42.00911521 103.74635796 -35.53034692 86.55572275 -29.04653263 69.36698246 C-28.1778617 67.06393486 -27.30935379 64.76082583 -26.44088078 62.45770359 C-23.188927 53.83417071 -19.93495348 45.21140671 -16.67617989 36.59044838 C-15.27317153 32.87880013 -13.87101294 29.16683688 -12.4711237 25.45401096 C-11.17448121 22.01518292 -9.87528414 18.57733154 -8.57402897 15.14024639 C-7.86800535 13.27341632 -7.16466657 11.40557157 -6.46138859 9.53770542 C-5.83502506 7.88563839 -5.83502506 7.88563839 -5.19600773 6.20019627 C-4.83252735 5.2380521 -4.46904697 4.27590794 -4.09455204 3.28460789 C-2.80027295 0.15661034 -2.80027295 0.15661034 0 0 Z " fill="#9BBB08" transform="translate(151.20015811920166,254.87695217132568)"/>
<path d="M0 0 C44.22 0 88.44 0 134 0 C142.84201546 23.5787079 151.68247894 47.1575783 160.48161316 70.75225449 C161.54672418 73.60809491 162.61215296 76.46381675 163.67757034 79.31954288 C168.82049234 93.10469604 173.96085257 106.89079801 179.09375 120.6796875 C179.48605301 121.73351624 179.87835602 122.78734497 180.282547 123.87310791 C180.86162056 125.42865387 180.86162056 125.42865387 181.45239258 127.015625 C182.21825869 129.0729178 182.98412781 131.13020947 183.75 133.1875 C184.12998138 134.20827637 184.50996277 135.22905273 184.90145874 136.28076172 C191.36019566 153.62861873 197.86065165 170.96063691 204.36846924 188.29013062 C212.10917301 208.90804213 219.78221597 229.55059718 227.44065857 250.19916534 C237.42456458 277.11644557 247.48085979 304.00608994 257.57861328 330.88085938 C262.87260622 344.97195254 268.15612344 359.06692332 273.40779686 373.17385292 C273.99498108 374.75060294 274.58270482 376.32715216 275.17098427 377.90349388 C275.98302738 380.0800069 276.7929644 382.25729157 277.60229492 384.43481445 C277.84633497 385.08778566 278.09037502 385.74075687 278.34181023 386.41351509 C280 390.88561158 280 390.88561158 280 392 C238.09 392 196.18 392 153 392 C151.27023114 387.38728303 149.61150737 382.9563867 148.19067383 378.27416992 C147.71051567 376.69795113 147.71051567 376.69795113 147.22065735 375.08988953 C146.88616074 373.98128067 146.55166412 372.87267181 146.20703125 371.73046875 C145.85613937 370.57251297 145.5052475 369.41455719 145.14372253 368.22151184 C144.4070299 365.78716645 143.67172841 363.35239969 142.93774414 360.91723633 C141.810514 357.1809172 140.67599216 353.4468629 139.54101562 349.71289062 C138.82507789 347.34388382 138.109568 344.97474766 137.39453125 342.60546875 C137.05396194 341.48673874 136.71339264 340.36800873 136.36250305 339.21537781 C136.0518541 338.18032608 135.74120514 337.14527435 135.42114258 336.07885742 C135.14595291 335.16810959 134.87076324 334.25736176 134.5872345 333.3190155 C134 331 134 331 134 328 C88.46 328 42.92 328 -4 328 C-4.66 330.97 -5.32 333.94 -6 337 C-6.53481905 338.95878485 -7.0923397 340.91161837 -7.67993164 342.85522461 C-8.15536156 344.43617165 -8.15536156 344.43617165 -8.64039612 346.04905701 C-8.97691696 347.15564163 -9.31343781 348.26222626 -9.66015625 349.40234375 C-10.0100914 350.56125626 -10.36002655 351.72016876 -10.7205658 352.91419983 C-11.45610604 355.34765206 -12.19323918 357.78062333 -12.93188477 360.21313477 C-14.06594667 363.94885371 -15.19448687 367.68620813 -16.32226562 371.42382812 C-17.03873958 373.7917644 -17.75552536 376.15960635 -18.47265625 378.52734375 C-18.81120132 379.64809799 -19.1497464 380.76885223 -19.49855042 381.92356873 C-19.81235153 382.95546829 -20.12615265 383.98736786 -20.44946289 385.05053711 C-20.72544815 385.96048935 -21.00143341 386.87044159 -21.28578186 387.80796814 C-22 390 -22 390 -23 392 C-63.92 392 -104.84 392 -147 392 C-143.62495187 380.74983957 -143.62495187 380.74983957 -141.66943359 375.578125 C-141.22892166 374.40814972 -140.78840973 373.23817444 -140.33454895 372.03274536 C-139.85590259 370.77180843 -139.37719685 369.51089404 -138.8984375 368.25 C-138.38749922 366.89666607 -137.87686209 365.5432184 -137.36650085 364.18966675 C-135.99233355 360.54790422 -134.61393757 356.90775712 -133.23439407 353.26802826 C-131.78927771 349.45421939 -130.34682408 345.6394035 -128.90405273 341.82470703 C-127.10675617 337.07308707 -125.30901097 332.3216386 -123.50956726 327.5708313 C-119.85209152 317.91227194 -116.21237703 308.2472416 -112.58892822 298.5758667 C-110.57772833 293.20777541 -108.56099267 287.84177005 -106.54273224 282.4763298 C-105.16712862 278.81841376 -103.79440645 275.1594698 -102.42816162 271.49804688 C-101.14748225 268.06625269 -99.85921352 264.63740632 -98.56507301 261.21066666 C-97.86696425 259.35598355 -97.17709865 257.49820424 -96.48747253 255.64035034 C-96.07016373 254.53942047 -95.65285492 253.4384906 -95.22290039 252.30419922 C-94.86386124 251.34649628 -94.50482208 250.38879333 -94.13490295 249.40206909 C-93.01082822 247.02291838 -92.02760579 245.65095291 -90 244 C-88.13745117 243.44750977 -88.13745117 243.44750977 -86.04296875 243.19140625 C-85.26735596 243.08658936 -84.49174316 242.98177246 -83.69262695 242.8737793 C-82.86593506 242.77105713 -82.03924316 242.66833496 -81.1875 242.5625 C-72.8625596 241.37950281 -64.99601695 239.66232048 -57 237 C-56.37561035 236.79536133 -55.7512207 236.59072266 -55.10791016 236.37988281 C-39.74629245 231.26825772 -26.03046824 223.94397275 -14 213 C-12.96166016 212.08347656 -12.96166016 212.08347656 -11.90234375 211.1484375 C8.52080649 192.06517584 20.03587245 161.59336986 21.16113281 134.05688477 C21.18094304 132.68513022 21.19470989 131.31327802 21.203125 129.94140625 C21.20882507 129.19398666 21.21452515 128.44656708 21.22039795 127.67649841 C21.2297838 126.10083399 21.23635616 124.5251505 21.24023438 122.94946289 C21.24984904 120.59939918 21.28089534 118.25024659 21.3125 115.90039062 C21.50823414 87.95223328 13.42676469 61.05526369 -4 39 C-5.89978571 37.11052054 -7.78905686 35.33050797 -9.8828125 33.66015625 C-11 32 -11 32 -10 26 C-6.7 17.42 -3.4 8.84 0 0 Z " fill="#00B3E1" transform="translate(621,255)"/>
<path d="M0 0 C28.07824751 -0.04684255 56.15648912 -0.08204869 84.23476791 -0.10362434 C97.27371278 -0.11391118 110.31263328 -0.12792163 123.3515625 -0.15087891 C134.72405714 -0.17089249 146.09653412 -0.18373525 157.46904588 -0.18817699 C163.4836154 -0.19077094 169.49813444 -0.19681309 175.51268768 -0.21146011 C181.18925424 -0.2251703 186.86575015 -0.22919587 192.5423317 -0.22621536 C194.61090862 -0.22675958 196.67948823 -0.23065614 198.74805069 -0.23841095 C215.38019203 -0.29763391 232.3426363 0.04682354 248.5625 4.125 C249.42053223 4.33672852 250.27856445 4.54845703 251.16259766 4.76660156 C277.65546474 11.67778428 302.26476057 26.40624727 317 50 C327.5032357 68.10255066 334.07518314 88.94785169 334.203125 109.9609375 C334.20882507 110.70977203 334.21452515 111.45860657 334.22039795 112.23013306 C334.22979745 113.81177381 334.2363617 115.39343371 334.24023438 116.97509766 C334.2498333 119.33403264 334.28085914 121.69205403 334.3125 124.05078125 C334.54996502 158.02050878 322.84079811 188.81065221 299 213 C298.28328125 213.72960937 297.5665625 214.45921875 296.828125 215.2109375 C268.65476476 242.0074042 226.54804398 246.4088331 189.578125 246.1953125 C187.83121876 246.19235924 186.08431072 246.19032674 184.33740234 246.18920898 C177.9749073 246.17887028 171.61245053 246.1509495 165.25 246.125 C150.9775 246.08375 136.705 246.0425 122 246 C122 294.18 122 342.36 122 392 C120.34608163 389.51912244 119.3914596 387.65892555 118.37451172 384.91967773 C118.06534821 384.09294556 117.75618469 383.26621338 117.43765259 382.41442871 C117.10502411 381.51325317 116.77239563 380.61207764 116.4296875 379.68359375 C116.07619232 378.73577026 115.72269714 377.78794678 115.35848999 376.81140137 C114.59385823 374.76027767 113.83091306 372.70852462 113.06945801 370.65621948 C111.04662863 365.20527831 109.01075527 359.75920842 106.9765625 354.3125 C106.56208862 353.20172592 106.14761475 352.09095184 105.72058105 350.94651794 C101.9392221 340.81904063 98.11547002 330.70800843 94.2666626 320.60598755 C93.59855337 318.85236627 92.93101486 317.09852742 92.26409912 315.3444519 C89.18806835 307.25498191 86.09272599 299.17650731 82.859375 291.1484375 C80.13126084 284.36656988 77.54568079 277.53959676 75 270.6875 C69.16379528 255.03988981 63.24073687 239.4254307 57.3125 223.8125 C55.38782941 218.74356224 53.46324122 213.67459325 51.5390625 208.60546875 C51.3020355 207.98106211 51.06500851 207.35665546 50.82079887 206.71332741 C47.67023801 198.41281564 44.52843661 190.10906779 41.3984375 181.80078125 C41.04282745 180.85696594 40.68721741 179.91315063 40.3208313 178.94073486 C39.97116302 178.01267029 39.62149475 177.08460571 39.26123047 176.12841797 C32.04925029 156.98729117 24.75356887 137.88078786 17.32032204 118.82434368 C16.66606338 117.13266049 16.01947688 115.43797549 15.38313293 113.73947239 C13.40992989 108.49724206 11.28499421 103.36938484 8.98213196 98.26289368 C-0.01176769 77.5399032 -1.57245803 59.37394203 -0.82397461 36.96270752 C-0.69807932 32.77149558 -0.64576599 28.57930173 -0.5859375 24.38671875 C-0.45971205 16.25528186 -0.25678928 8.12836084 0 0 Z " fill="#F57800" transform="translate(309,255)"/>
<path d="M0 0 C3.30530208 1.65265104 3.83801011 5.3199967 5.0625 8.6328125 C5.36540955 9.43462448 5.66831909 10.23643646 5.98040771 11.06254578 C6.99332142 13.74767417 7.99646169 16.43635508 9 19.125 C9.71696464 21.02984563 10.43475368 22.93438116 11.15332031 24.83862305 C12.28335588 27.83353446 13.41285782 30.82863585 14.53985596 33.82469177 C18.19705786 43.54487794 21.91768668 53.24023529 25.64401245 62.93408203 C34.76682588 86.67690819 43.7451315 110.47377167 52.71247864 134.27565002 C60.62743222 155.28404798 68.6194552 176.2614489 76.70043945 197.20654297 C79.67997799 204.93362362 82.63458274 212.66820881 85.53141785 220.42671204 C89.21365282 230.26943343 92.98978249 240.07669743 96.74502563 249.89172363 C100.83721222 260.5917341 104.918786 271.29580059 109 282 C109.36720154 282.96268799 109.73440308 283.92537598 110.11273193 284.91723633 C111.93095041 289.6854818 113.74470152 294.45535156 115.54803467 299.22924805 C116.05398679 300.56665826 116.56165255 301.90342155 117.07110596 303.23950195 C117.75652245 305.03809548 118.43513056 306.83927936 119.11328125 308.640625 C119.48235596 309.61547852 119.85143066 310.59033203 120.23168945 311.59472656 C121 314 121 314 121 317 C81.07 317 41.14 317 0 317 C0 212.39 0 107.78 0 0 Z " fill="#5C7D1A" transform="translate(309,330)"/>
<path d="M0 0 C21.58428353 17.0875578 30.71473597 44.5540557 34 71 C34.11201868 73.66231055 34.18691578 76.2987456 34.203125 78.9609375 C34.20882507 79.70977203 34.21452515 80.45860657 34.22039795 81.23013306 C34.22979745 82.81177381 34.2363617 84.39343371 34.24023438 85.97509766 C34.2498333 88.33403264 34.28085914 90.69205403 34.3125 93.05078125 C34.54996502 127.02050878 22.84079811 157.81065221 -1 182 C-2.07507813 183.09441406 -2.07507813 183.09441406 -3.171875 184.2109375 C-23.06733399 203.13406203 -53.20517232 212.2257775 -80 214 C-75.14721762 199.83242744 -69.9581776 185.81196617 -64.61444092 171.82284546 C-62.19197041 165.47950539 -59.7794253 159.13239281 -57.3671875 152.78515625 C-57.11241764 152.11499292 -56.85764778 151.4448296 -56.59515762 150.75435829 C-50.13312883 133.7528343 -43.75335105 116.72055194 -37.375 99.6875 C-35.10059478 93.61445807 -32.8259061 87.54152238 -30.55078125 81.46875 C-30.27394438 80.72977415 -29.99710751 79.9907983 -29.71188164 79.22942924 C-25.81383678 68.82533666 -21.90419572 58.42568442 -17.98046875 48.03125 C-17.74564537 47.40916971 -17.51082199 46.78708942 -17.26888275 46.14615822 C-14.87791924 39.81299167 -12.48446468 33.48076964 -10.08935547 27.14916992 C-9.5107653 25.61860962 -9.5107653 25.61860962 -8.92048645 24.05712891 C-8.21870948 22.20085379 -7.5163709 20.34479083 -6.8132782 18.48901367 C-4.49051155 12.34452481 -2.23265536 6.177775 0 0 Z " fill="#AC217F" transform="translate(609,286)"/>
<path d="M0 0 C11.323125 -0.12375 11.323125 -0.12375 22.875 -0.25 C25.21706543 -0.28641602 27.55913086 -0.32283203 29.97216797 -0.36035156 C47.91648275 -0.52240204 67.58444936 0.55829052 81.8125 13 C90.91325757 22.97282033 93.42734946 35.03735964 93.2109375 48.0546875 C92.66864682 58.19753162 87.77825858 67.71897807 80.4375 74.75 C63.89672342 88.05794928 43.6822263 87.41286956 23.625 87.1875 C15.82875 87.125625 8.0325 87.06375 0 87 C0 58.29 0 29.58 0 0 Z " fill="#FEFEFD" transform="translate(431,335)"/>
<path d="M0 0 C1.86036733 2.79055099 2.67313568 4.76072631 3.63793945 7.92114258 C3.95115143 8.93879196 4.2643634 9.95644135 4.58706665 11.00492859 C4.92571747 12.12349747 5.26436829 13.24206635 5.61328125 14.39453125 C5.97561859 15.5776741 6.33795593 16.76081696 6.71127319 17.97981262 C7.70836079 21.24042666 8.70082324 24.50237576 9.6908226 27.76514435 C10.52133558 30.50025334 11.35499931 33.23439803 12.18853855 35.96858597 C14.65854909 44.07209967 17.11710066 52.17906329 19.5723877 60.28704834 C20.78279771 64.28392605 21.99511993 68.28022118 23.20787716 72.27638721 C25.90354436 81.15949016 28.59137914 90.04492592 31.27157593 98.93270874 C32.21492744 102.06066055 33.16056016 105.1879089 34.10806274 108.31460571 C35.22795037 112.0111905 36.34229453 115.70940185 37.45238113 119.40894127 C37.86278857 120.77355336 38.27507077 122.1376032 38.6893425 123.50104713 C39.25596344 125.36714581 39.81506548 127.23552259 40.3737793 129.10400391 C40.68953415 130.15165924 41.005289 131.19931458 41.33061218 132.27871704 C42 135 42 135 42 139 C14.28 139 -13.44 139 -42 139 C-40.8016166 133.00808301 -39.69722263 127.57848804 -37.92797852 121.82666016 C-37.73077713 121.18076935 -37.53357574 120.53487854 -37.33039856 119.86941528 C-36.68447463 117.75786382 -36.03173769 115.64848751 -35.37890625 113.5390625 C-34.91444085 112.02547176 -34.45041598 110.51174577 -33.98680115 108.99789429 C-32.76396958 105.00903183 -31.53538618 101.02196451 -30.30548096 97.03527832 C-29.09684181 93.11437469 -27.8932713 89.19191717 -26.68945312 85.26953125 C-25.01100437 79.8022679 -23.33104872 74.33547207 -21.64912415 68.869277 C-18.6636801 59.16616381 -15.68757544 49.46021881 -12.71973991 39.75170517 C-12.25092294 38.21816753 -11.78194139 36.68468019 -11.31277657 35.15124893 C-8.38264872 25.57339202 -5.46880473 15.99098938 -2.66416931 6.37545776 C-1.10761448 1.10761448 -1.10761448 1.10761448 0 0 Z " fill="#FCFEFE" transform="translate(686,358)"/>
<path d="M0 0 C2 1 2 1 2.69848633 2.80322266 C2.90755615 3.5822998 3.11662598 4.36137695 3.33203125 5.1640625 C3.57058838 6.0312793 3.80914551 6.89849609 4.05493164 7.79199219 C4.3049292 8.72688477 4.55492676 9.66177734 4.8125 10.625 C6.58653385 17.05729637 8.40731403 23.43448668 10.5625 29.75 C13.83450303 39.35760124 16.62794863 49.09633404 19.3671875 58.8671875 C22.39701583 69.64474933 25.66159718 80.32053649 29.10424805 90.97363281 C31.89034336 99.60818703 34.50243383 108.27834035 37 117 C37.54543584 118.89066455 38.09101771 120.78128698 38.63671875 122.671875 C39.19567836 124.6144781 39.75427636 126.55718529 40.3125 128.5 C40.71299561 129.8917041 40.71299561 129.8917041 41.12158203 131.31152344 C41.36634277 132.1677832 41.61110352 133.02404297 41.86328125 133.90625 C42.08282471 134.67259766 42.30236816 135.43894531 42.52856445 136.22851562 C43 138 43 138 43 139 C14.95 139 -13.1 139 -42 139 C-40.65446598 132.9450969 -39.21919816 127.35902717 -37.1875 121.5625 C-35.06287134 115.36009123 -33.14381665 109.14264835 -31.4375 102.8125 C-29.96953486 97.37321692 -28.38700784 92.02157069 -26.5625 86.6875 C-24.184909 79.72669112 -22.1556895 72.69171099 -20.15820312 65.61352539 C-18.55290661 59.92638078 -16.88771689 54.26569403 -15.125 48.625 C-14.1950965 45.62864428 -13.28104769 42.62861016 -12.375 39.625 C-9.39522357 29.75479572 -6.38207372 19.91145088 -3.04296875 10.15625 C-1.93104842 6.79133754 -0.95238394 3.41306826 0 0 Z " fill="#FEFEFC" transform="translate(213,358)"/>
<path d="M0 0 C0.99 0 1.98 0 3 0 C3 0.99 3 1.98 3 3 C2.34 3 1.68 3 1 3 C1.99 4.485 1.99 4.485 3 6 C2 9 2 9 0.5 10.375 C-1.43309736 12.46918881 -1.62452796 14.22150692 -2 17 C-3.32 17.33 -4.64 17.66 -6 18 C-4.23536928 11.89262558 -2.30442525 5.92566493 0 0 Z " fill="#A3C121" transform="translate(98,388)"/>
<path d="M0 0 C0.99 0 1.98 0 3 0 C3.6875 2.3125 3.6875 2.3125 4 5 C2.6875 6.6875 2.6875 6.6875 1 8 C0.34 8.66 -0.32 9.32 -1 10 C-2.15837626 5.94568308 -1.83691257 3.78187881 0 0 Z " fill="#9EBD13" transform="translate(291,286)"/>
<path d="M0 0 C0.99 0.66 1.98 1.32 3 2 C2.67 3.65 2.34 5.3 2 7 C2.66 7 3.32 7 4 7 C3.67 7.99 3.34 8.98 3 10 C0.525 9.01 0.525 9.01 -2 8 C-1.34 5.36 -0.68 2.72 0 0 Z " fill="#A1BF1D" transform="translate(130,303)"/>
<path d="M0 0 C3 1 3 1 4 3 C6.01669827 4.13350534 6.01669827 4.13350534 8 5 C7.34 5.66 6.68 6.32 6 7 C5.34 7 4.68 7 4 7 C3.01 7.495 3.01 7.495 2 8 C0.74335022 5.09399739 0 3.20395416 0 0 Z " fill="#A0BF1D" transform="translate(216,364)"/>
<path d="M0 0 C0.33 0.66 0.66 1.32 1 2 C3.02463255 2.65213292 3.02463255 2.65213292 5 3 C4.67 3.99 4.34 4.98 4 6 C2.02 6 0.04 6 -2 6 C-1.34 4.02 -0.68 2.04 0 0 Z " fill="#A1BF1A" transform="translate(3,641)"/>
<path d="M0 0 C0.99 0.33 1.98 0.66 3 1 C2.67 2.65 2.34 4.3 2 6 C0.68 6.33 -0.64 6.66 -2 7 C-1.34 4.69 -0.68 2.38 0 0 Z " fill="#A2C01E" transform="translate(90,410)"/>
<path d="M0 0 C1.46726798 3.81489674 0.43336419 6.29011622 -1 10 C-1.66 10 -2.32 10 -3 10 C-2.39009109 6.44219804 -1.4216319 3.3171411 0 0 Z " fill="#A7C32D" transform="translate(46,527)"/>
<path d="M0 0 C2 3 2 3 3 6 C1.35 6.66 -0.3 7.32 -2 8 C-1.34 5.36 -0.68 2.72 0 0 Z " fill="#A4C125" transform="translate(11,619)"/>
<path d="M0 0 C0.33 0.66 0.66 1.32 1 2 C0.0625 4.625 0.0625 4.625 -1 7 C-1.99 6.67 -2.98 6.34 -4 6 C-3.67 4.35 -3.34 2.7 -3 1 C-2.01 0.67 -1.02 0.34 0 0 Z " fill="#A2C021" transform="translate(182,458)"/>
<path d="M0 0 C0.66 0.33 1.32 0.66 2 1 C-0.625 5.875 -0.625 5.875 -4 7 C-2.92598892 4.08482708 -2.22189824 2.22189824 0 0 Z " fill="#A0BE17" transform="translate(230,393)"/>
</svg>
