<?xml version="1.0" encoding="UTF-8"?>
<svg version="1.1" xmlns="http://www.w3.org/2000/svg" width="200" height="200">
<path d="M0 0 C66 0 132 0 200 0 C200 66 200 132 200 200 C134 200 68 200 0 200 C0 134 0 68 0 0 Z " fill="#FEFEFE" transform="translate(0,0)"/>
<path d="M0 0 C3.34815143 1.57698521 5.32561139 3.65122277 7 7 C7.14252463 9.08056569 7.22632749 11.16528171 7.28125 13.25 C7.33732422 15.12171875 7.33732422 15.12171875 7.39453125 17.03125 C7.46484375 19.67708333 7.53515625 22.32291667 7.60546875 24.96875 C7.66154297 26.84046875 7.66154297 26.84046875 7.71875 28.75 C7.74904297 29.89984375 7.77933594 31.0496875 7.81054688 32.234375 C7.81884919 34.95856541 7.81884919 34.95856541 9 37 C9.99 37 10.98 37 12 37 C12.495 32.05 12.495 32.05 13 27 C14.32 26.67 15.64 26.34 17 26 C18.79792975 27.79792975 18.25670277 30.38385204 18.3125 32.8125 C18.36857422 34.39998047 18.36857422 34.39998047 18.42578125 36.01953125 C18 39 18 39 16.2265625 41.35546875 C13.49971777 43.3695067 11.32945665 43.55683544 7.97265625 43.40625 C4.94184644 42.78208323 3.14552985 41.14552985 1 39 C0.401875 39.474375 -0.19625 39.94875 -0.8125 40.4375 C-5.87597134 44.05426524 -12.03549258 43.78500614 -18 43 C-21.19217396 41.58485689 -23.12244662 39.94270385 -25 37 C-26.66512704 32.32931866 -26.5178118 29.11847349 -24.4375 24.625 C-19.14832937 18.92897009 -13.35366178 18.42691406 -5.92578125 17.52734375 C-2.82087484 17.16825372 -2.82087484 17.16825372 0 15 C0.5 11.5 0.5 11.5 0 8 C-3.25995586 5.82669609 -4.22979966 5.75078541 -8 5.8125 C-8.86625 5.81894531 -9.7325 5.82539062 -10.625 5.83203125 C-13.14927465 5.91169563 -13.14927465 5.91169563 -16 7 C-15.01 8.485 -15.01 8.485 -14 10 C-14.375 12.6875 -14.375 12.6875 -15 15 C-19.4143167 16.31236443 -19.4143167 16.31236443 -21.875 15 C-23 13 -23 13 -23.0625 9.625 C-21.66419624 4.8543166 -20.02627072 3.79373887 -16 1 C-11.33450152 -1.33274924 -5.06255514 -0.52866637 0 0 Z " fill="#0C0C0C" transform="translate(40,80)"/>
<path d="M0 0 C6.6 0 13.2 0 20 0 C20.66 1.32 21.32 2.64 22 4 C21.67 4.33 21.34 4.66 21 5 C19.35 5 17.7 5 16 5 C18.31 7.97 20.62 10.94 23 14 C26.19199167 11.58443874 28.74716687 9.31996462 31 6 C29.35 5.34 27.7 4.68 26 4 C26.33 2.68 26.66 1.36 27 0 C33.93 0 40.86 0 48 0 C48.495 1.98 48.495 1.98 49 4 C48 5 48 5 44.31640625 5.19921875 C39.31081739 5.77476648 37.09561978 8.08177831 33.9375 11.8125 C33.44056641 12.34681641 32.94363281 12.88113281 32.43164062 13.43164062 C30.82805216 15.17743807 30.82805216 15.17743807 29 18 C29.51724177 22.42510936 32.36694617 25.37563483 35.125 28.6875 C35.58648437 29.28111328 36.04796875 29.87472656 36.5234375 30.48632812 C39.28725318 33.81581487 40.48543746 34.88097493 44.8671875 35.89453125 C45.90101563 35.92933594 46.93484375 35.96414062 48 36 C48.5625 37.9375 48.5625 37.9375 49 40 C48 41 48 41 45.95874023 41.11352539 C44.64691772 41.10567017 44.64691772 41.10567017 43.30859375 41.09765625 C42.36435547 41.09443359 41.42011719 41.09121094 40.44726562 41.08789062 C39.45404297 41.07951172 38.46082031 41.07113281 37.4375 41.0625 C36.44041016 41.05798828 35.44332031 41.05347656 34.41601562 41.04882812 C31.94395151 41.03700007 29.47200482 41.02051849 27 41 C26.4375 39.0625 26.4375 39.0625 26 37 C26.33 36.67 26.66 36.34 27 36 C28.98 36 30.96 36 33 36 C30.03 32.37 27.06 28.74 24 25 C19.92229821 29.04781328 19.92229821 29.04781328 16.1875 33.3125 C15.465625 34.199375 14.74375 35.08625 14 36 C15.98 36 17.96 36 20 36 C20.33 37.65 20.66 39.3 21 41 C13.74 41 6.48 41 -1 41 C-1.33 39.68 -1.66 38.36 -2 37 C-1.505 36.505 -1.505 36.505 -1 36 C-0.01 36.020625 0.98 36.04125 2 36.0625 C7.13198648 35.42761508 9.70283785 31.46506191 12.88671875 27.73828125 C15.07767704 24.89935008 17.04943193 22.00730923 19 19 C17.35839872 16.83031008 15.69108362 14.69308688 14 12.5625 C13.54238281 11.95083984 13.08476563 11.33917969 12.61328125 10.70898438 C9.86831495 7.30597821 8.0575371 5.64391089 3.625 5.08984375 C2.42875 5.06019531 1.2325 5.03054687 0 5 C0 3.35 0 1.7 0 0 Z " fill="#0E0E0E" transform="translate(113,81)"/>
<path d="M0 0 C3.27486552 1.46323779 5.70631372 3.25014642 8 6 C8.75595176 10.0243314 8.51918919 13.81740239 6.875 17.5625 C4.20923937 19.60624981 2.26525064 19.35491855 -1 19 C-2 18 -2 18 -2.0625 15.4375 C-2.041875 14.633125 -2.02125 13.82875 -2 13 C-0.68 12.67 0.64 12.34 2 12 C0.91215032 8.75016865 0.91215032 8.75016865 -1 6 C-4.03377539 5.63135399 -6.96912096 5.60062424 -10 6 C-12.67531456 8.34090024 -13.3134066 10.59764064 -14 14 C-14.07991104 15.80581755 -14.10769823 17.61431809 -14.09765625 19.421875 C-14.09443359 20.44667969 -14.09121094 21.47148438 -14.08789062 22.52734375 C-14.07951172 23.59082031 -14.07113281 24.65429688 -14.0625 25.75 C-14.05798828 26.82894531 -14.05347656 27.90789062 -14.04882812 29.01953125 C-14.03705727 31.67974383 -14.02061399 34.33984365 -14 37 C-11.69 37 -9.38 37 -7 37 C-6.4375 38.9375 -6.4375 38.9375 -6 41 C-7 42 -7 42 -9.13305664 42.11352539 C-10.50772095 42.10567017 -10.50772095 42.10567017 -11.91015625 42.09765625 C-12.89951172 42.09443359 -13.88886719 42.09121094 -14.90820312 42.08789062 C-15.94912109 42.07951172 -16.99003906 42.07113281 -18.0625 42.0625 C-19.10728516 42.05798828 -20.15207031 42.05347656 -21.22851562 42.04882812 C-23.8190666 42.03699913 -26.40950559 42.02051689 -29 42 C-29.5625 40.0625 -29.5625 40.0625 -30 38 C-29 37 -29 37 -22 36 C-22 26.1 -22 16.2 -22 6 C-24.64 6 -27.28 6 -30 6 C-29.67 4.35 -29.34 2.7 -29 1 C-24.71 1 -20.42 1 -16 1 C-15.67 1.99 -15.34 2.98 -15 4 C-14.071875 3.01 -14.071875 3.01 -13.125 2 C-8.75441601 -0.79717375 -5.06305749 -0.70065375 0 0 Z " fill="#0B0B0B" transform="translate(95,80)"/>
<path d="M0 0 C0.33 0 0.66 0 1 0 C1.57685009 9.80645161 1.57685009 9.80645161 -2 14 C-4.93580687 16.43252569 -7.32544524 17.22911405 -11.0625 17.4375 C-15 17 -15 17 -17.5 15.375 C-19.43204232 12.31593299 -19.52979878 10.5572204 -19 7 C-17.15189459 4.21753647 -15.75572603 3.93690937 -12.4609375 3.0859375 C-11.10104894 2.83724193 -9.73890871 2.60060896 -8.375 2.375 C-3.81663261 1.94405947 -3.81663261 1.94405947 0 0 Z " fill="#F4F4F4" transform="translate(40,101)"/>
<path d="M0 0 C2.4375 0.8125 2.4375 0.8125 4.4375 2.8125 C3.86931818 8.38068182 3.86931818 8.38068182 2.4375 9.8125 C-0.5 10 -0.5 10 -3.5625 9.8125 C-5.5625 7.8125 -5.5625 7.8125 -5.875 5.375 C-5.5625 2.8125 -5.5625 2.8125 -4.375 0.9375 C-2.5625 -0.1875 -2.5625 -0.1875 0 0 Z " fill="#0E0E0E" transform="translate(180.5625,113.1875)"/>
</svg>
