<?xml version="1.0" encoding="UTF-8"?>
<svg version="1.1" xmlns="http://www.w3.org/2000/svg" width="4000" height="4000">
<path d="M0 0 C178.53 0 357.06 0 541 0 C541 178.53 541 357.06 541 541 C362.47 541 183.94 541 0 541 C0 362.47 0 183.94 0 0 Z " fill="#FFB902" transform="translate(2027,1626)"/>
<path d="M0 0 C178.53 0 357.06 0 541 0 C541 178.53 541 357.06 541 541 C362.47 541 183.94 541 0 541 C0 362.47 0 183.94 0 0 Z " fill="#02A4EF" transform="translate(1432,1626)"/>
<path d="M0 0 C178.53 0 357.06 0 541 0 C541 178.53 541 357.06 541 541 C362.47 541 183.94 541 0 541 C0 362.47 0 183.94 0 0 Z " fill="#80BA01" transform="translate(2027,1031)"/>
<path d="M0 0 C178.53 0 357.06 0 541 0 C541 178.53 541 357.06 541 541 C362.47 541 183.94 541 0 541 C0 362.47 0 183.94 0 0 Z " fill="#F25022" transform="translate(1432,1031)"/>
<path d="M0 0 C45.87 0 91.74 0 139 0 C142.25200012 7.15440027 145.3614528 14.23221433 148.1953125 21.54296875 C148.77272438 23.02095947 148.77272438 23.02095947 149.36180115 24.52880859 C150.18813699 26.64471024 151.01315008 28.76112887 151.83694458 30.87802124 C154.06327486 36.5982664 156.30001475 42.31444339 158.53515625 48.03125 C159.22100044 49.78661324 159.22100044 49.78661324 159.92070007 51.57743835 C164.43525513 63.12710892 168.99319079 74.6594022 173.5625 86.1875 C174.34766222 88.16910571 175.13281845 90.15071379 175.91796875 92.13232422 C177.48909133 96.09713579 179.06060647 100.06179152 180.63232422 104.02636719 C184.23351904 113.11097537 187.82983766 122.19751411 191.42630005 131.28399658 C192.6212903 134.30312748 193.81637672 137.3222203 195.01147461 140.34130859 C203.36170248 161.43672298 211.70199452 182.53606323 220.04174805 203.63562012 C228.08333165 223.98069478 236.12700465 244.32493755 244.17892456 264.66592407 C245.37918695 267.69807725 246.57936541 270.73026364 247.77954102 273.76245117 C251.34945487 282.78121659 254.92014298 291.79967259 258.49433899 300.81674194 C260.4342483 305.71095438 262.37342241 310.60545799 264.3125 315.5 C264.88531204 316.9455426 264.88531204 316.9455426 265.46969604 318.42028809 C270.06062198 330.00833015 274.63390388 341.6031687 279.18298531 353.20769882 C279.94197448 355.14382869 280.70118106 357.07987319 281.46043396 359.01589966 C283.90721048 365.25558616 286.35158241 371.49619637 288.79223633 377.73828125 C289.68303316 380.01174708 290.57389888 382.28518593 291.46484375 384.55859375 C291.86506744 385.5846019 292.26529114 386.61061005 292.67764282 387.66770935 C294.97217136 393.51586241 297.38970714 399.28552092 300 405 C308.1988472 385.49214131 316.27480461 365.93826296 324.1875 346.3125 C330.73675848 330.06927957 337.31358817 313.837936 343.9375 297.625 C344.35131927 296.61200836 344.76513855 295.59901672 345.1914978 294.55532837 C347.2884869 289.42243403 349.38604066 284.28977071 351.48388672 279.15722656 C355.24272616 269.9601244 358.99639572 260.76091208 362.75045776 251.56185913 C364.8360636 246.45132258 366.92193354 241.34089383 369.0078125 236.23046875 C369.42073044 235.21880142 369.83364838 234.20713409 370.25907898 233.16481018 C373.14882534 226.08494746 376.03916264 219.00532616 378.9296875 211.92578125 C398.80516743 163.24495159 418.64838627 114.55171795 438.33203125 65.79296875 C438.79188919 64.65394104 439.25174713 63.51491333 439.72554016 62.34136963 C441.96167693 56.80256426 444.19735868 51.26357647 446.43188477 45.72412109 C452.58863877 30.46913976 458.79317244 15.23494037 465 0 C509.22 0 553.44 0 599 0 C599 182.49 599 364.98 599 553 C566.99 553 534.98 553 502 553 C501.505 344.11 501.505 344.11 501 131 C496.14728769 141.91860269 491.43940082 152.67908273 487.21484375 163.8203125 C486.17792282 166.52985661 485.13738761 169.23800996 484.09716797 171.94628906 C483.8377583 172.62297827 483.57834864 173.29966747 483.31107807 173.99686241 C480.71432434 180.76406113 478.05413045 187.50564687 475.37890625 194.2421875 C474.91300079 195.41572784 474.44709534 196.58926819 473.96707153 197.79837036 C472.75386105 200.85184597 471.53971233 203.90494613 470.32505798 206.9578476 C468.99268154 210.30758461 467.66196897 213.65798262 466.33105469 217.00830078 C464.05694108 222.73241008 461.78194291 228.45616707 459.50634766 234.1796875 C455.98539142 243.03569857 452.46708222 251.89276003 448.94921875 260.75 C447.75514001 263.75635284 446.56104493 266.76269919 445.36694336 269.76904297 C444.92091625 270.8919917 444.92091625 270.8919917 444.46587849 272.03762627 C441.11838178 280.46538876 437.77018811 288.89287433 434.421875 297.3203125 C434.11752974 298.08632908 433.81318447 298.85234566 433.49961662 299.64157486 C430.07613529 308.25820724 426.65244874 316.87475806 423.22851562 325.49121094 C407.79921367 364.31963411 392.37184121 403.14878075 377 442 C376.49808136 443.26849792 376.49808136 443.26849792 375.98602295 444.56262207 C369.69302139 460.46860188 363.41724203 476.38123982 357.17161369 492.30588722 C356.43221602 494.19101259 355.69264604 496.07607027 354.95301819 497.96110535 C354.45687748 499.22561599 353.96073796 500.4901271 353.46459961 501.75463867 C353.21823415 502.38253642 352.97186869 503.01043417 352.71803761 503.65735912 C351.03508564 507.94712329 349.35437773 512.23776279 347.67407227 516.52856445 C346.77236136 518.8276615 345.87058986 521.12673478 344.96875 523.42578125 C344.57131088 524.44224731 344.17387177 525.45871338 343.76438904 526.50598145 C340.2789072 535.38379746 336.6332258 544.17645162 333 553 C310.23 553 287.46 553 264 553 C258.37524208 540.62553258 258.37524208 540.62553258 256.65429688 536.34399414 C256.26111267 535.36933701 255.86792847 534.39467987 255.46282959 533.39048767 C255.05228333 532.3657283 254.64173706 531.34096893 254.21875 530.28515625 C253.77291565 529.17817886 253.3270813 528.07120148 252.86773682 526.93067932 C251.66130536 523.93406806 250.45699462 520.93661541 249.25358582 517.93878937 C247.97073728 514.74473368 246.68498763 511.55184636 245.39941406 508.35888672 C243.81124986 504.41395324 242.22329857 500.46893485 240.63653564 496.5234375 C236.10546956 485.25700585 231.55892323 473.99686443 227.00823975 462.73834229 C206.71041249 412.5141429 186.49117454 362.25823868 166.27539062 312.00097656 C153.34802123 279.86308361 140.41615089 247.72700683 127.47453308 215.59484863 C124.10694895 207.23340513 120.7407913 198.87138983 117.37641144 190.5086565 C115.01864836 184.64819024 112.65977931 178.78816998 110.30005646 172.92849255 C108.9355993 169.54013408 107.57167289 166.15156447 106.20916748 162.76242065 C104.73103853 159.08570002 103.25039488 155.4099951 101.76953125 151.734375 C101.34187973 150.66943314 100.91422821 149.60449127 100.47361755 148.50727844 C100.07216019 147.51197617 99.67070282 146.51667389 99.25708008 145.49121094 C98.91534256 144.64202087 98.57360504 143.79283081 98.22151184 142.91790771 C97.15413037 140.3681816 96.0484957 137.84232637 94.92365551 135.31763077 C94.56342775 134.50864783 94.20319998 133.69966488 93.83205622 132.86616731 C93.55747767 132.2503321 93.28289912 131.63449688 93 131 C91.80183535 150.44985516 91.82743031 169.89273977 91.79939139 189.37063956 C91.79128706 194.2632861 91.7776249 199.15591778 91.76467896 204.04855347 C91.74305645 212.50050762 91.724861 220.95246339 91.70907402 229.40443039 C91.68624435 241.62416464 91.65812065 253.84388232 91.62875474 266.0636024 C91.58123808 285.89509607 91.5379314 305.72659656 91.49731445 325.55810547 C91.45787804 344.8087619 91.41643266 364.0594123 91.37231445 383.31005859 C91.36959018 384.49907691 91.36686591 385.68809522 91.36405908 386.91314439 C91.35037827 392.87881901 91.33665826 398.84449354 91.32291877 404.81016803 C91.20920456 454.20676678 91.10312378 503.60337778 91 553 C60.97 553 30.94 553 0 553 C0 370.51 0 188.02 0 0 Z " fill="#777777" transform="translate(442,2407)"/>
<path d="M0 0 C0.84578613 0.10924805 1.69157227 0.21849609 2.56298828 0.33105469 C10.79181016 1.5445949 18.46216434 3.70929108 26.625 5.75 C26.625 32.81 26.625 59.87 26.625 87.75 C23.35324947 87.09564989 20.601161 86.48401471 17.515625 85.41015625 C16.76023437 85.15169922 16.00484375 84.89324219 15.2265625 84.62695312 C13.67401304 84.08923458 12.12191932 83.55019817 10.5703125 83.00976562 C2.39334372 80.2171229 -5.749737 78.38666265 -14.375 77.75 C-15.36693359 77.66878906 -15.36693359 77.66878906 -16.37890625 77.5859375 C-31.19582698 76.96739432 -45.42203912 81.45889009 -56.75 91 C-61.3730002 95.43068339 -64.53496357 100.03591472 -67.375 105.75 C-68.05175781 107.0184375 -68.05175781 107.0184375 -68.7421875 108.3125 C-80.50333119 132.80908331 -75.97430173 172.91019836 -76.375 195.75 C-30.835 195.75 14.705 195.75 61.625 195.75 C61.625 166.05 61.625 136.35 61.625 105.75 C104.58355815 92.41803368 104.58355815 92.41803368 117.05095005 88.57894039 C120.51060422 87.51349797 123.96950893 86.44572795 127.42700195 85.37329102 C130.86297267 84.30761193 134.30057936 83.24737913 137.73942375 82.19101143 C139.6483714 81.60309754 141.55560036 81.00961229 143.46278381 80.41600037 C144.61016525 80.0646553 145.75754669 79.71331024 146.93969727 79.35131836 C147.94476822 79.04093124 148.94983917 78.73054413 149.98536682 78.41075134 C152.625 77.75 152.625 77.75 156.625 77.75 C156.625 116.69 156.625 155.63 156.625 195.75 C187.645 195.75 218.665 195.75 250.625 195.75 C250.625 221.49 250.625 247.23 250.625 273.75 C219.605 273.75 188.585 273.75 156.625 273.75 C156.71571417 308.29986504 156.71571417 308.29986504 156.83398438 342.84960938 C156.88836363 356.94945081 156.93978115 371.0492567 156.97143555 385.14916992 C156.99450864 395.42044509 157.02800955 405.69162609 157.07370156 415.96282643 C157.09750888 421.39440888 157.1163191 426.8258988 157.12261391 432.25753212 C157.1287218 437.38508612 157.14892383 442.51240373 157.17927551 447.63986969 C157.18796535 449.50727627 157.19179748 451.37471387 157.19000816 453.24213982 C157.17755598 472.25909519 157.65792923 494.58987496 170.62890625 509.8203125 C181.34759926 520.18241494 195.18057602 522.3744868 209.46435547 522.21826172 C221.70996221 521.81783185 231.6454538 518.12841083 242.38623047 512.39257812 C247.34293774 509.75 247.34293774 509.75 250.625 509.75 C250.625 535.49 250.625 561.23 250.625 587.75 C241.60741931 592.25879034 241.60741931 592.25879034 237.84765625 593.34765625 C237.01274658 593.59040283 236.17783691 593.83314941 235.31762695 594.08325195 C234.44968506 594.32390381 233.58174316 594.56455566 232.6875 594.8125 C231.31694458 595.19764771 231.31694458 595.19764771 229.91870117 595.59057617 C213.1841205 600.17015335 196.57609739 601.98505344 179.25 602 C178.54390594 602.00067474 177.83781189 602.00134949 177.11032104 602.00204468 C165.4097243 601.98435133 154.06571348 601.35097671 142.625 598.75 C141.52744385 598.50056641 141.52744385 598.50056641 140.40771484 598.24609375 C115.41359326 592.27800812 93.30777908 578.01468669 79.55419922 556.0390625 C66.6974333 534.6803374 61.41798515 508.90234493 61.50474548 484.15744019 C61.50346385 482.79092621 61.50346385 482.79092621 61.50215632 481.39680588 C61.50052192 478.37372886 61.50598917 475.35070854 61.51147461 472.32763672 C61.51175695 470.1488495 61.51159783 467.97006219 61.5110321 465.79127502 C61.51074595 459.89741868 61.51661324 454.0035828 61.52360606 448.1097312 C61.52986993 441.94246875 61.5304458 435.77520581 61.53163147 429.60794067 C61.53473585 417.93870797 61.54293719 406.26948466 61.55298096 394.60025609 C61.56626322 378.82500547 61.57164922 363.04975283 61.57748318 347.27449799 C61.58687768 322.43299162 61.60680258 297.59150509 61.625 272.75 C16.085 272.75 -29.455 272.75 -76.375 272.75 C-76.375 378.35 -76.375 483.95 -76.375 592.75 C-108.055 592.75 -139.735 592.75 -172.375 592.75 C-172.375 487.48 -172.375 382.21 -172.375 273.75 C-193.825 273.42 -215.275 273.09 -237.375 272.75 C-237.705 247.34 -238.035 221.93 -238.375 195.75 C-216.595 195.75 -194.815 195.75 -172.375 195.75 C-172.45361085 176.62066806 -172.45361085 176.62066806 -172.55517578 157.49145508 C-172.71774197 111.88047911 -164.93700164 70.89364582 -131.859375 37.21582031 C-123.01168386 28.47872531 -113.31790588 21.61966021 -102.375 15.75 C-101.48240479 15.27071045 -101.48240479 15.27071045 -100.57177734 14.78173828 C-70.13845437 -1.19930669 -33.67940596 -4.38868656 0 0 Z " fill="#777777" transform="translate(3307.375,2367.25)"/>
<path d="M0 0 C0.55397461 0.44714355 1.10794922 0.89428711 1.67871094 1.35498047 C42.62426719 34.61610857 62.61893838 83.38924738 68 135 C73.63129185 196.57725898 62.91801911 259.67352139 23.4375 308.75 C16.76525849 316.73789477 10.08198173 324.41216616 2 331 C1.01644531 331.82113281 0.03289063 332.64226563 -0.98046875 333.48828125 C-39.62650882 365.21613263 -88.29042672 377.51706239 -137.5625 377.3125 C-138.47898315 377.31067719 -139.39546631 377.30885437 -140.33972168 377.30697632 C-197.69758183 377.11558395 -248.67689491 359.20870777 -289.6171875 318.390625 C-325.73930763 280.30660058 -339.21360103 226.86982125 -339.25 175.625 C-339.25067474 174.76817627 -339.25134949 173.91135254 -339.25204468 173.02856445 C-339.18207026 116.70896984 -324.63040941 62.18967426 -286 20 C-285.14019531 19.05640625 -284.28039063 18.1128125 -283.39453125 17.140625 C-221.64759723 -47.50215615 -108.16398394 -54.67267969 0 0 Z M-203 64 C-203.82113281 64.72703125 -204.64226562 65.4540625 -205.48828125 66.203125 C-231.23120015 90.38465379 -239.74559655 127.17279952 -241.12988281 161.19189453 C-242.23663034 199.10638186 -236.36192865 239.89442222 -209.43164062 268.66259766 C-187.93986389 290.6187029 -160.79613946 298.5002773 -130.64990234 299.01123047 C-104.37162271 298.89986131 -79.82030059 290.32058742 -60.81640625 271.90234375 C-34.73680547 245.59296676 -29.02979695 204.88557093 -28.75 169.5 C-29.05168511 131.34626119 -36.19803643 92.98133108 -64 65 C-84.91302728 45.03143202 -112.2951443 39.26418959 -140.35546875 39.68359375 C-163.30356497 40.47217678 -185.79187643 48.61655512 -203 64 Z " fill="#777777" transform="translate(2240,2592)"/>
<path d="M0 0 C0.97960693 0.46744629 0.97960693 0.46744629 1.97900391 0.94433594 C16.57827774 7.97788872 29.32476142 17.81042027 41 29 C42.30130859 30.2065625 42.30130859 30.2065625 43.62890625 31.4375 C79.34620583 65.57978352 95.78028432 117.20748498 97.20507812 165.63183594 C97.32659951 171.65059284 97.33405855 177.66776168 97.3125 183.6875 C97.30976578 185.27398346 97.30976578 185.27398346 97.30697632 186.89251709 C97.26277626 202.12181323 96.95228412 217.01192765 94 232 C93.83371094 232.89041992 93.66742187 233.78083984 93.49609375 234.69824219 C85.87863897 274.6052414 68.6460681 309.29365299 41 339 C40.34902344 339.71671875 39.69804687 340.4334375 39.02734375 341.171875 C27.90177275 352.91910604 14.14949686 362.27467868 0 370 C-0.92449951 370.50756836 -0.92449951 370.50756836 -1.86767578 371.02539062 C-26.08755672 384.14161918 -51.75738007 390.87605707 -79 394 C-79.78189697 394.09571289 -80.56379395 394.19142578 -81.36938477 394.29003906 C-136.94632809 400.30534977 -195.13797723 389.72943896 -240.0625 355.37890625 C-245.27335148 351.15894807 -250.15307761 346.62960114 -255 342 C-255.86625 341.18660156 -256.7325 340.37320313 -257.625 339.53515625 C-291.11903902 307.24480926 -309.19181341 256.82054078 -310.16113281 210.87109375 C-310.18066698 209.05994709 -310.19443138 207.24873114 -310.203125 205.4375 C-310.21013931 204.45619614 -310.21715363 203.47489227 -310.22438049 202.46385193 C-310.24180648 199.30918751 -310.24823393 196.1547108 -310.25 193 C-310.25067474 191.92275665 -310.25134949 190.84551331 -310.25204468 189.73562622 C-310.23600661 173.63385526 -309.85382234 157.88983563 -307 142 C-306.83371094 141.04593262 -306.66742187 140.09186523 -306.49609375 139.10888672 C-301.16246599 109.52206829 -290.4374901 81.55816484 -273 57 C-272.58733887 56.41234863 -272.17467773 55.82469727 -271.74951172 55.21923828 C-260.01698898 38.75245747 -244.9738721 23.98309371 -228 13 C-227.40832031 12.61199219 -226.81664063 12.22398437 -226.20703125 11.82421875 C-197.07306726 -7.07177958 -163.43252688 -16.97837009 -129 -20 C-127.88109375 -20.11085938 -126.7621875 -20.22171875 -125.609375 -20.3359375 C-82.78581898 -23.95345251 -38.88743855 -18.92904598 0 0 Z M-181.71875 88.80859375 C-196.17012767 105.2448057 -204.37565962 125.83669362 -209 147 C-209.16661133 147.73879395 -209.33322266 148.47758789 -209.50488281 149.23876953 C-212.28358692 162.21468487 -212.31110883 175.35266487 -212.375 188.5625 C-212.38691879 189.85211639 -212.38691879 189.85211639 -212.39907837 191.16778564 C-212.51560962 207.60476325 -211.04444956 223.95273416 -206.25 239.75 C-205.86593994 241.04538696 -205.86593994 241.04538696 -205.47412109 242.36694336 C-200.04948038 260.07795387 -191.87665499 274.52868598 -179 288 C-178.38769531 288.68707031 -177.77539062 289.37414063 -177.14453125 290.08203125 C-159.77277949 308.86130234 -132.80121273 316.02491792 -108 317 C-79.80998184 317.30411116 -53.42629395 310.19346588 -32.52099609 290.51220703 C-6.0082416 264.15265626 -0.68743084 222.80813008 -0.5625 187.25 C-0.57951049 157.95250074 -4.5199576 129.84769083 -19 104 C-19.50789063 103.0409375 -20.01578125 102.081875 -20.5390625 101.09375 C-31.65445744 81.71306139 -51.94738733 67.77932022 -73.15625 61.78125 C-112.10165229 51.44433114 -153.34279411 59.49492668 -181.71875 88.80859375 Z " fill="#777777" transform="translate(2965,2574)"/>
<path d="M0 0 C34.78254992 -0.83705023 68.09588571 5.18707812 100.75195312 17.06201172 C100.75195312 46.10201172 100.75195312 75.14201172 100.75195312 105.06201172 C96.29347663 103.94739259 93.0368165 101.88958052 89.18945312 99.49951172 C60.65263672 82.30385426 21.2002591 71.15659147 -12.08178711 78.18920898 C-23.94664687 81.17408857 -34.65199077 86.62616595 -41.55664062 97.03466797 C-47.12056968 107.2861563 -47.28009363 117.98102065 -44.28320312 129.03466797 C-39.93432574 141.75308297 -30.79382858 148.70819934 -19.29101562 154.83544922 C-18.33978317 155.34764008 -17.38855072 155.85983093 -16.40849304 156.38754272 C-5.42810584 162.18617228 5.97354352 166.94606739 17.43945312 171.68701172 C41.97967166 181.86570067 65.37099283 192.72963204 85.75195312 210.06201172 C86.97978516 211.07134766 86.97978516 211.07134766 88.23242188 212.10107422 C108.89417837 229.71962627 119.31777375 255.40120412 121.75195312 282.06201172 C124.06410725 316.24838336 113.25879122 346.37229409 90.99023438 372.09716797 C63.16128599 401.74866713 19.4961714 414.73874024 -20.09277344 416.2043457 C-41.82232512 416.76387073 -62.79815077 415.75135692 -84.24804688 412.06201172 C-85.26431152 411.89072754 -86.28057617 411.71944336 -87.32763672 411.54296875 C-106.14648324 408.24547351 -126.12326059 402.62440486 -143.24804688 394.06201172 C-143.24804688 363.37201172 -143.24804688 332.68201172 -143.24804688 301.06201172 C-140.31948067 302.52629482 -137.72791791 303.98085998 -135.00195312 305.74951172 C-105.31421025 324.76125262 -71.93971913 338.77934225 -36.24804688 340.06201172 C-35.46429687 340.10197266 -34.68054687 340.14193359 -33.87304688 340.18310547 C-17.12703184 340.65133286 2.38862229 337.77663083 15.50195312 326.74951172 C23.62465365 317.04739721 25.6535817 307.56858033 24.93408203 294.99658203 C24.0191444 285.27812919 18.86957599 278.39438058 11.75195312 272.06201172 C-5.13693921 258.59859433 -26.22591177 250.84735432 -45.92211914 242.49438477 C-68.16092937 233.03234356 -89.92073618 223.09019741 -108.24804688 207.06201172 C-109.27929688 206.27826172 -110.31054688 205.49451172 -111.37304688 204.68701172 C-133.64808272 184.34893552 -141.96154713 155.57302796 -143.43164062 126.42138672 C-144.06882165 93.58782307 -132.5145962 65.29477866 -109.99804688 41.49951172 C-80.8205253 13.4596458 -39.71104627 1.09541765 0 0 Z " fill="#777777" transform="translate(2494.248046875,2552.93798828125)"/>
<path d="M0 0 C1.85581966 1.85581966 1.12004366 4.49398306 1.12442017 6.96286011 C1.12082489 7.81953278 1.11722961 8.67620544 1.11352539 9.55883789 C1.11367142 10.45631241 1.11381744 11.35378693 1.1139679 12.27845764 C1.11326842 15.25988134 1.10547441 18.2412434 1.09765625 21.22265625 C1.09579219 23.28388942 1.09436823 25.34512304 1.09336853 27.40635681 C1.08954237 32.8430401 1.07971126 38.27969686 1.06866455 43.71636963 C1.05845253 49.25947714 1.05387136 54.80258892 1.04882812 60.34570312 C1.03808908 71.23048043 1.02101149 82.11523802 1 93 C-1.73496397 91.65406616 -4.27332429 90.22546348 -6.80859375 88.53125 C-24.44595573 76.93519132 -42.44373424 68.04928692 -63 63 C-64.04969971 62.73533936 -64.04969971 62.73533936 -65.12060547 62.46533203 C-95.00648175 55.21831228 -128.93157008 60.06930707 -155.2890625 75.92041016 C-160.11222153 78.96379047 -164.57913492 82.40684406 -169 86 C-169.75410156 86.5775 -170.50820312 87.155 -171.28515625 87.75 C-195.32628856 107.29705495 -206.66356676 139.30053691 -210.58984375 169.07421875 C-213.90051041 201.67670501 -210.30445218 235.20092994 -194 264 C-193.44570312 264.99386719 -192.89140625 265.98773437 -192.3203125 267.01171875 C-179.05819526 289.25273355 -156.95491688 304.3920325 -132.4375 311.75 C-131.77782227 311.94875732 -131.11814453 312.14751465 -130.43847656 312.35229492 C-93.63988291 322.80664453 -55.82284523 313.7793941 -23 296 C-22.36658691 295.65791504 -21.73317383 295.31583008 -21.08056641 294.96337891 C-14.55050418 291.40624427 -8.22664358 287.75047388 -2.453125 283.03125 C-1 282 -1 282 1 282 C1.23181989 293.239322 1.40944046 304.4780745 1.51812172 315.71930122 C1.5702882 320.93937809 1.64102167 326.15781835 1.75439453 331.37695312 C1.86314942 336.41509913 1.92286028 341.45167269 1.94877243 346.49090195 C1.96723382 348.41204467 2.0032887 350.33310231 2.05730057 352.25357437 C2.46411368 367.31927817 2.46411368 367.31927817 -1.15765381 371.47686768 C-3.75245411 373.06509978 -6.1106179 374.07555814 -9 375 C-10.28841229 375.6207654 -11.57050569 376.25493992 -12.84375 376.90625 C-56.5869672 395.97380622 -108.95858523 402.45399862 -156 393 C-156.88445801 392.82307617 -157.76891602 392.64615234 -158.68017578 392.46386719 C-164.84679009 391.18664677 -170.93270901 389.68515641 -177 388 C-177.75555176 387.79036621 -178.51110352 387.58073242 -179.28955078 387.36474609 C-204.3839104 380.1767476 -227.40390939 367.16218126 -247 350 C-247.87140625 349.24976562 -248.7428125 348.49953125 -249.640625 347.7265625 C-254.87545348 343.13433272 -259.60276477 338.39454632 -264 333 C-264.82113281 332.01644531 -265.64226562 331.03289063 -266.48828125 330.01953125 C-297.23515388 292.57269285 -310.49473972 245.93862158 -310.3125 198.0625 C-310.31067719 197.06999237 -310.30885437 196.07748474 -310.30697632 195.05490112 C-310.23578771 172.01877774 -307.80515319 150.33597607 -302 128 C-301.80680176 127.24283691 -301.61360352 126.48567383 -301.41455078 125.70556641 C-295.03387356 101.10066382 -283.62363155 77.05806163 -268 57 C-267.34257813 56.12085937 -266.68515625 55.24171875 -266.0078125 54.3359375 C-232.29084123 10.91057762 -180.94282115 -11.98796033 -127.3671875 -18.75390625 C-84.64192603 -23.52091805 -39.02578228 -18.68415831 0 0 Z " fill="#777777" transform="translate(1596,2573)"/>
<path d="M0 0 C0 31.35 0 62.7 0 95 C-4.6134843 94.07730314 -7.14957109 92.9691724 -11.1875 90.75 C-16.75153913 87.82846468 -22.31710843 85.78600439 -28.375 84.125 C-29.11129639 83.92229492 -29.84759277 83.71958984 -30.60620117 83.51074219 C-51.54348146 78.0482277 -73.33485388 79.83617777 -92.10595703 90.78173828 C-97.36417415 94.1638604 -101.68439464 98.51617014 -106 103 C-106.72574219 103.71800781 -107.45148438 104.43601562 -108.19921875 105.17578125 C-132.57801085 130.6082736 -136.2852777 168.52496787 -136.31884766 201.94165039 C-136.32816783 204.0919176 -136.33833953 206.24218126 -136.34928894 208.3924408 C-136.37636767 214.17636611 -136.39167201 219.96026739 -136.40471697 225.74423909 C-136.42044532 231.80872275 -136.44720412 237.87315799 -136.4727478 243.93760681 C-136.51936492 255.39762932 -136.55619117 266.85766112 -136.58942068 278.31772941 C-136.6277633 291.37473727 -136.67714131 304.43169628 -136.72740483 317.48866284 C-136.8304706 344.32574351 -136.91835648 371.16284502 -137 398 C-168.02 398 -199.04 398 -231 398 C-231.33 266.99 -231.66 135.98 -232 1 C-200.65 1 -169.3 1 -137 1 C-136.67 21.46 -136.34 41.92 -136 63 C-132.37 56.07 -128.74 49.14 -125 42 C-122.06197793 37.7517789 -119.30740629 33.89315445 -116 30 C-115.24847656 29.11054688 -114.49695312 28.22109375 -113.72265625 27.3046875 C-87.85779439 -2.31831668 -37.11665386 -18.55832693 0 0 Z " fill="#777777" transform="translate(1897,2562)"/>
<path d="M0 0 C31.68 0 63.36 0 96 0 C96 131.01 96 262.02 96 397 C64.65 397 33.3 397 1 397 C0.8719854 352.63443024 0.74442011 308.26885929 0.61781773 263.90328548 C0.60280112 258.64117143 0.58777916 253.37905739 0.57275391 248.11694336 C0.56976329 247.06954508 0.56677268 246.0221468 0.56369144 244.94300918 C0.51553442 228.08149039 0.46694694 211.21997287 0.41819459 194.3584558 C0.3680156 177.00012897 0.31831261 159.64180082 0.26903296 142.28347141 C0.2387184 131.61052043 0.20805181 120.93757059 0.17690456 110.26462201 C0.15545359 102.90190024 0.13447337 95.53917721 0.11383021 88.17645314 C0.10004055 83.26348943 0.08591402 78.35052704 0.07111061 73.43756628 C-0.00029915 48.9581453 0 24.47973771 0 0 Z " fill="#777777" transform="translate(1128,2563)"/>
<path d="M0 0 C11.00526004 9.08659602 17.55850555 21.83047399 19.47436523 35.9230957 C20.60368055 52.43933218 16.50318534 66.27425223 6.07202148 79.1184082 C-4.5584177 90.5646125 -19.78829355 96.21944796 -35.12329102 97.32543945 C-52.77864829 97.62681113 -68.20379508 92.02016094 -80.99438477 79.87231445 C-91.76991506 68.62746663 -95.93951019 55.9121189 -95.77954102 40.56079102 C-95.21567264 24.34957524 -88.06042636 11.11815918 -76.30688477 0.12231445 C-53.79930103 -17.08743159 -22.49074607 -17.58711701 0 0 Z " fill="#777777" transform="translate(1215.306884765625,2406.877685546875)"/>
</svg>
