
        <svg xmlns="http://www.w3.org/2000/svg" xmlns:xlink="http://www.w3.org/1999/xlink" version="1.1" width="3153.9823008849557" 
        height="874.6235771516783" viewBox="0 0 3153.9823008849557 874.6235771516783">
			
			<g transform="scale(7.6991150442477885) translate(10, 10)">
				<defs id="SvgjsDefs4200"></defs><g id="SvgjsG4201" featureKey="v37d4h-0" transform="matrix(1.2068965435028076,0,0,1.2068965435028076,20,19.798809349023063)" fill="#c84771"><title xmlns="http://www.w3.org/2000/svg">033-North Point Arrow</title><desc xmlns="http://www.w3.org/2000/svg">Created with Sketch.</desc><g xmlns="http://www.w3.org/2000/svg" stroke="none" stroke-width="1" fill="none" fill-rule="evenodd"><g fill="#c84771"><path d="M49,34.15 L26,34.15 L26,10.15 L31,10.15 L31.001,10.15 L31.001,10.15 C31.12,10.15 31.239,10.122 31.353,10.079 C31.393,10.063 31.427,10.041 31.465,10.02 C31.51,9.996 31.558,9.981 31.6,9.95 C31.619,9.935 31.628,9.914 31.646,9.898 C31.699,9.853 31.74,9.801 31.782,9.746 C31.82,9.695 31.858,9.648 31.886,9.592 C31.913,9.537 31.928,9.479 31.946,9.419 C31.965,9.352 31.982,9.288 31.986,9.218 C31.988,9.194 32,9.174 32,9.15 C32,9.11 31.982,9.076 31.977,9.037 C31.969,8.969 31.959,8.904 31.937,8.838 C31.915,8.772 31.884,8.713 31.849,8.654 C31.83,8.62 31.824,8.582 31.8,8.55 L25.8,0.55 C25.77,0.511 25.728,0.49 25.694,0.456 C25.661,0.422 25.64,0.38 25.6,0.35 C25.584,0.338 25.565,0.336 25.548,0.325 C25.489,0.286 25.427,0.262 25.362,0.237 C25.304,0.214 25.249,0.188 25.189,0.177 C25.126,0.164 25.064,0.167 25,0.167 C24.936,0.167 24.874,0.164 24.811,0.177 C24.751,0.188 24.696,0.214 24.639,0.237 C24.574,0.262 24.511,0.286 24.452,0.325 C24.436,0.336 24.416,0.338 24.4,0.35 C24.36,0.38 24.339,0.422 24.306,0.456 C24.272,0.49 24.23,0.511 24.2,0.55 L18.2,8.55 C18.176,8.582 18.17,8.62 18.151,8.654 C18.116,8.713 18.085,8.772 18.063,8.838 C18.041,8.904 18.031,8.969 18.023,9.036 C18.018,9.075 18,9.11 18,9.15 C18,9.174 18.012,9.194 18.014,9.218 C18.019,9.288 18.035,9.352 18.054,9.419 C18.072,9.479 18.087,9.537 18.114,9.592 C18.142,9.648 18.18,9.695 18.218,9.745 C18.26,9.801 18.301,9.853 18.354,9.898 C18.372,9.914 18.381,9.935 18.4,9.95 C18.442,9.981 18.49,9.996 18.535,10.02 C18.573,10.041 18.607,10.063 18.647,10.079 C18.761,10.122 18.88,10.15 18.999,10.15 L18.999,10.15 L19,10.15 L24,10.15 L24,34.15 L1,34.15 C0.448,34.15 0,34.598 0,35.15 C0,35.702 0.448,36.15 1,36.15 L24,36.15 L24,59.15 C24,59.702 24.448,60.15 25,60.15 C25.552,60.15 26,59.702 26,59.15 L26,36.15 L49,36.15 C49.552,36.15 50,35.702 50,35.15 C50,34.598 49.552,34.15 49,34.15"></path><path d="M21,38.15 L5,38.15 C4.448,38.15 4,38.598 4,39.15 C4,39.702 4.448,40.15 5,40.15 L20,40.15 L20,55.15 C20,55.702 20.448,56.15 21,56.15 C21.552,56.15 22,55.702 22,55.15 L22,39.15 C22,38.598 21.552,38.15 21,38.15"></path><path d="M17,42.15 L9,42.15 C8.448,42.15 8,42.598 8,43.15 C8,43.702 8.448,44.15 9,44.15 L16,44.15 L16,51.15 C16,51.702 16.448,52.15 17,52.15 C17.552,52.15 18,51.702 18,51.15 L18,43.15 C18,42.598 17.552,42.15 17,42.15"></path><path d="M45,38.15 L29,38.15 C28.448,38.15 28,38.598 28,39.15 L28,55.15 C28,55.702 28.448,56.15 29,56.15 C29.552,56.15 30,55.702 30,55.15 L30,40.15 L45,40.15 C45.552,40.15 46,39.702 46,39.15 C46,38.598 45.552,38.15 45,38.15"></path><path d="M41,42.15 L33,42.15 C32.448,42.15 32,42.598 32,43.15 L32,51.15 C32,51.702 32.448,52.15 33,52.15 C33.552,52.15 34,51.702 34,51.15 L34,44.15 L41,44.15 C41.552,44.15 42,43.702 42,43.15 C42,42.598 41.552,42.15 41,42.15"></path><path d="M30,15.15 C30,14.598 29.552,14.15 29,14.15 C28.448,14.15 28,14.598 28,15.15 L28,31.15 C28,31.702 28.448,32.15 29,32.15 L45,32.15 C45.552,32.15 46,31.702 46,31.15 C46,30.598 45.552,30.15 45,30.15 L30,30.15 L30,15.15 Z"></path><path d="M32,27.15 C32,27.702 32.448,28.15 33,28.15 L41,28.15 C41.552,28.15 42,27.702 42,27.15 C42,26.598 41.552,26.15 41,26.15 L34,26.15 L34,19.15 C34,18.598 33.552,18.15 33,18.15 C32.448,18.15 32,18.598 32,19.15 L32,27.15 Z"></path><path d="M5,32.15 L21,32.15 C21.552,32.15 22,31.702 22,31.15 L22,15.15 C22,14.598 21.552,14.15 21,14.15 C20.448,14.15 20,14.598 20,15.15 L20,30.15 L5,30.15 C4.448,30.15 4,30.598 4,31.15 C4,31.702 4.448,32.15 5,32.15"></path><path d="M9,28.15 L17,28.15 C17.552,28.15 18,27.702 18,27.15 L18,19.15 C18,18.598 17.552,18.15 17,18.15 C16.448,18.15 16,18.598 16,19.15 L16,26.15 L9,26.15 C8.448,26.15 8,26.598 8,27.15 C8,27.702 8.448,28.15 9,28.15"></path></g></g></g><g id="SvgjsG4202" featureKey="UxBHKT-0" transform="matrix(2.26895809173584,0,0,2.26895809173584,98.27559354585772,27.517414186192013)" fill="#111111"><path d="M0.76 18.54 l1.56 -2.08 q0.72 0.5 1.68 0.84 t1.88 0.34 q0.68 0 1.13 -0.28 t0.45 -0.7 t-0.51 -0.59 t-0.99 -0.24 t-0.62 -0.09 q-1.2 -0.2 -2.07 -0.48 t-1.58 -1 t-0.71 -1.98 q0 -2.08 1.51 -2.78 t3.03 -0.7 q1.3 0 2.4 0.38 t2.18 1.2 l-1.56 2.04 q-0.78 -0.46 -1.54 -0.74 t-1.58 -0.28 q-0.5 0 -0.97 0.22 t-0.47 0.6 q0 0.48 0.65 0.68 t1.43 0.3 q1.4 0.24 2.24 0.5 t1.49 0.97 t0.65 2.01 q0 1.72 -1.18 2.65 t-3.34 0.93 q-3 0 -5.16 -1.72 z M16.52 16.08 q0 0.7 0.24 1.17 t1.12 0.47 q0.4 0 0.76 -0.04 l0 2.52 q-0.72 0.08 -1.34 0.08 q-1.28 0 -2.07 -0.21 t-1.23 -0.81 t-0.44 -1.72 l0 -6.1 l-1.34 0 l0 -2.62 l1.34 0 l0 -2.94 l2.96 0 l0 2.94 l2.2 0 l0 2.62 l-2.2 0 l0 4.64 z M21 15.54 l0 -6.5 l3.02 0 l0 6.5 q0 1.18 0.59 1.69 t1.55 0.51 q0.84 0 1.5 -0.65 t0.6 -2.23 l0 -5.82 l3 0 l0 10.96 l-3 0 l0 -0.94 q-0.54 0.56 -1.31 0.87 t-1.63 0.31 q-4.32 0 -4.32 -4.7 z M42.519999999999996 18.9 q-0.38 0.52 -1.31 0.93 t-2.03 0.41 q-1.7 0 -2.95 -0.76 t-1.91 -2.07 t-0.66 -2.91 t0.66 -2.91 t1.91 -2.07 t2.95 -0.76 q1.14 0 2.01 0.39 t1.33 0.99 l0 -5.26 l2.96 0 l0 15.12 l-2.96 0 l0 -1.1 z M41.81999999999999 12.25 q-0.82 -0.87 -2.2 -0.87 q-1.4 0 -2.21 0.87 t-0.81 2.25 q0 1.34 0.83 2.22 t2.19 0.88 q1.4 0 2.21 -0.83 t0.81 -2.27 q0 -1.38 -0.82 -2.25 z M51.239999999999995 7.369999999999999 q-0.48 0.47 -1.16 0.47 q-0.7 0 -1.19 -0.47 t-0.49 -1.15 q0 -0.66 0.49 -1.13 t1.19 -0.47 q0.68 0 1.16 0.47 t0.48 1.13 q0 0.68 -0.48 1.15 z M48.58 9.02 l3 0 l0 10.98 l-3 0 l0 -10.98 z M56.989999999999995 19.49 q-1.37 -0.77 -2.17 -2.09 t-0.8 -2.88 q0 -1.54 0.8 -2.86 t2.17 -2.09 t2.99 -0.77 t3 0.77 t2.19 2.09 t0.81 2.86 q0 1.56 -0.81 2.88 t-2.19 2.09 t-3 0.77 t-2.99 -0.77 z M58.459999999999994 11.83 q-0.7 0.41 -1.1 1.12 t-0.4 1.57 q0 0.9 0.39 1.61 t1.08 1.12 t1.55 0.41 q0.84 0 1.53 -0.41 t1.09 -1.13 t0.4 -1.6 q0 -0.86 -0.4 -1.57 t-1.09 -1.12 t-1.53 -0.41 q-0.82 0 -1.52 0.41 z M83.63 10.02 q1.03 1.22 1.03 3.48 l0 6.5 l-3.06 0 l0 -6.5 q0 -2.22 -2.12 -2.22 q-0.82 0 -1.48 0.65 t-0.62 2.25 l0 5.82 l-2.98 0 l0 -11 l2.98 0 l0 0.98 q0.54 -0.54 1.36 -0.86 t1.58 -0.32 q2.28 0 3.31 1.22 z M90.02999999999999 19.49 q-1.37 -0.77 -2.17 -2.09 t-0.8 -2.88 q0 -1.54 0.8 -2.86 t2.17 -2.09 t2.99 -0.77 t3 0.77 t2.19 2.09 t0.81 2.86 q0 1.56 -0.81 2.88 t-2.19 2.09 t-3 0.77 t-2.99 -0.77 z M91.49999999999999 11.83 q-0.7 0.41 -1.1 1.12 t-0.4 1.57 q0 0.9 0.39 1.61 t1.08 1.12 t1.55 0.41 q0.84 0 1.53 -0.41 t1.09 -1.13 t0.4 -1.6 q0 -0.86 -0.4 -1.57 t-1.09 -1.12 t-1.53 -0.41 q-0.82 0 -1.52 0.41 z M106.69999999999999 11.87 q-0.86 0.21 -1.58 0.99 t-0.72 2.28 l0 4.86 l-2.98 0 l0 -11 l2.98 0 l0 1.46 q0.74 -0.98 1.81 -1.33 t1.95 -0.33 l0 2.92 q-0.6 -0.06 -1.46 0.15 z M113.63999999999999 16.08 q0 0.7 0.24 1.17 t1.12 0.47 q0.4 0 0.76 -0.04 l0 2.52 q-0.72 0.08 -1.34 0.08 q-1.28 0 -2.07 -0.21 t-1.23 -0.81 t-0.44 -1.72 l0 -6.1 l-1.34 0 l0 -2.62 l1.34 0 l0 -2.94 l2.96 0 l0 2.94 l2.2 0 l0 2.62 l-2.2 0 l0 4.64 z M127.38999999999999 10.02 q1.03 1.22 1.03 3.48 l0 6.5 l-3.04 0 l0 -6.5 q0 -1.18 -0.59 -1.7 t-1.55 -0.52 q-0.82 0 -1.48 0.65 t-0.62 2.25 l0 5.82 l-2.98 0 l0 -15.14 l2.98 0 l0 5.12 q0.54 -0.54 1.36 -0.86 t1.58 -0.32 q2.28 0 3.31 1.22 z"></path></g>
			</g>
		</svg>
	