<?xml version="1.0" encoding="UTF-8"?>
<svg version="1.1" xmlns="http://www.w3.org/2000/svg" width="146" height="128">
<path d="M0 0 C1.19092758 -0.00525696 2.38185516 -0.01051392 3.60887146 -0.01593018 C6.86307204 -0.02684728 10.11690463 -0.02432256 13.37109947 -0.01479292 C16.78358076 -0.00717472 20.19603821 -0.01424791 23.60852051 -0.01895142 C29.33817937 -0.02440271 35.06772207 -0.01723389 40.79736328 -0.00292969 C47.41282541 0.01339572 54.02801011 0.00810676 60.64346552 -0.0084089 C66.33282924 -0.02204172 72.02210965 -0.02393469 77.71148443 -0.0160929 C81.10535571 -0.0114262 84.49909678 -0.01076372 87.89295959 -0.02070236 C91.67752841 -0.02832114 95.46156459 -0.01670556 99.24609375 0 C100.36523666 -0.00607269 101.48437958 -0.01214539 102.63743591 -0.0184021 C108.19762689 0.02706476 112.3667439 0.16215734 117.12304688 3.38818359 C121.33429313 7.82107439 121.59461734 11.59971008 121.49365234 17.43164062 C120.86273336 22.46486121 118.57498288 26.27785266 115.99804688 30.57568359 C115.46107178 31.51420166 114.92409668 32.45271973 114.37084961 33.41967773 C112.64468412 36.42327026 110.88583709 39.40596527 109.12304688 42.38818359 C107.96907992 44.3716151 106.81673172 46.35598929 105.66601562 48.34130859 C103.33083351 52.36228045 100.98266527 56.37530354 98.62695312 60.38427734 C95.22872991 66.18367401 91.91582862 72.02843754 88.62304688 77.88818359 C84.04297759 86.03131046 79.39498529 94.1316458 74.68554688 102.20068359 C73.83476562 103.65861328 73.83476562 103.65861328 72.96679688 105.14599609 C62.535 122.97623047 62.535 122.97623047 61.12304688 124.38818359 C57.40636554 124.83556585 53.67495876 124.89966168 49.93554688 125.01318359 C48.89333984 125.08408203 47.85113281 125.15498047 46.77734375 125.22802734 C39.27283027 125.40931883 39.27283027 125.40931883 36.27490234 122.74682617 C34.65555235 120.37321823 33.38825577 117.96763144 32.12304688 115.38818359 C31.07654475 113.55035886 30.02421654 111.71584228 28.96679688 109.88427734 C27.84921946 107.86640143 26.73477386 105.84678863 25.62304688 103.82568359 C20.92189721 95.35398941 16.15128537 86.93207475 11.24804688 78.57568359 C5.37860401 68.56354472 -0.43960896 58.52345047 -6.16162109 48.42626953 C-9.0938897 43.25267485 -12.0360522 38.09187609 -15.11132812 33.00146484 C-23.31733246 19.2580076 -23.31733246 19.2580076 -22.47070312 11.59130859 C-21.23574044 7.00894707 -19.37278671 4.40275278 -15.4708252 1.75619507 C-10.29811477 -0.21280302 -5.49061197 -0.02979316 0 0 Z " fill="#F9F9F9" transform="translate(21.876953125,3.61181640625)"/>
<path d="M0 0 C1.19092758 -0.00525696 2.38185516 -0.01051392 3.60887146 -0.01593018 C6.86307204 -0.02684728 10.11690463 -0.02432256 13.37109947 -0.01479292 C16.78358076 -0.00717472 20.19603821 -0.01424791 23.60852051 -0.01895142 C29.33817937 -0.02440271 35.06772207 -0.01723389 40.79736328 -0.00292969 C47.41282541 0.01339572 54.02801011 0.00810676 60.64346552 -0.0084089 C66.33282924 -0.02204172 72.02210965 -0.02393469 77.71148443 -0.0160929 C81.10535571 -0.0114262 84.49909678 -0.01076372 87.89295959 -0.02070236 C91.67752841 -0.02832114 95.46156459 -0.01670556 99.24609375 0 C100.36523666 -0.00607269 101.48437958 -0.01214539 102.63743591 -0.0184021 C108.19762689 0.02706476 112.3667439 0.16215734 117.12304688 3.38818359 C121.33429313 7.82107439 121.59461734 11.59971008 121.49365234 17.43164062 C120.86273336 22.46486121 118.57498288 26.27785266 115.99804688 30.57568359 C115.46107178 31.51420166 114.92409668 32.45271973 114.37084961 33.41967773 C112.64468412 36.42327026 110.88583709 39.40596527 109.12304688 42.38818359 C107.96907992 44.3716151 106.81673172 46.35598929 105.66601562 48.34130859 C103.33083351 52.36228045 100.98266527 56.37530354 98.62695312 60.38427734 C95.22872991 66.18367401 91.91582862 72.02843754 88.62304688 77.88818359 C84.04297759 86.03131046 79.39498529 94.1316458 74.68554688 102.20068359 C73.83476562 103.65861328 73.83476562 103.65861328 72.96679688 105.14599609 C62.535 122.97623047 62.535 122.97623047 61.12304688 124.38818359 C57.40636554 124.83556585 53.67495876 124.89966168 49.93554688 125.01318359 C48.89333984 125.08408203 47.85113281 125.15498047 46.77734375 125.22802734 C39.27283027 125.40931883 39.27283027 125.40931883 36.27490234 122.74682617 C34.65555235 120.37321823 33.38825577 117.96763144 32.12304688 115.38818359 C31.07654475 113.55035886 30.02421654 111.71584228 28.96679688 109.88427734 C27.84921946 107.86640143 26.73477386 105.84678863 25.62304688 103.82568359 C20.92189721 95.35398941 16.15128537 86.93207475 11.24804688 78.57568359 C5.37860401 68.56354472 -0.43960896 58.52345047 -6.16162109 48.42626953 C-9.0938897 43.25267485 -12.0360522 38.09187609 -15.11132812 33.00146484 C-23.31733246 19.2580076 -23.31733246 19.2580076 -22.47070312 11.59130859 C-21.23574044 7.00894707 -19.37278671 4.40275278 -15.4708252 1.75619507 C-10.29811477 -0.21280302 -5.49061197 -0.02979316 0 0 Z M-15.87695312 8.38818359 C-16.65202686 13.10004107 -15.40634791 15.96564008 -13.08789062 20.03662109 C-12.48315918 21.11202148 -11.87842773 22.18742187 -11.25537109 23.29541016 C-10.58790312 24.45152985 -9.92008818 25.60744929 -9.25195312 26.76318359 C-8.56623868 27.97063461 -7.88151963 29.17865141 -7.19775391 30.38720703 C-5.11021404 34.06548847 -2.99739908 37.72879411 -0.87695312 41.38818359 C-0.25820313 42.45649414 0.36054688 43.52480469 0.99804688 44.62548828 C3.32100643 48.62571634 5.65128691 52.62151235 7.99291992 56.61083984 C11.91451045 63.29227246 15.7613617 70.01146555 19.56054688 76.76318359 C24.06798952 84.75808071 28.57622618 92.75250729 33.13406372 100.71881104 C34.09729457 102.40558706 35.05447002 104.09581649 36.01147461 105.78613281 C40.43458465 113.55339981 40.43458465 113.55339981 46.12304688 120.38818359 C49.62304688 121.38818359 49.62304688 121.38818359 53.12304688 120.38818359 C58.45845525 115.06199009 61.77937458 108.28986071 65.43554688 101.76318359 C66.14128702 100.51412381 66.84768 99.2654327 67.5546875 98.01708984 C69.02091737 95.42703492 70.48434453 92.83542702 71.94580078 90.24267578 C75.31201168 84.27621142 78.71960822 78.33346816 82.12304688 72.38818359 C83.44751283 70.07191812 84.77180004 67.75555193 86.09570312 65.43896484 C86.42431335 64.86403793 86.75292358 64.28911102 87.0914917 63.69676208 C89.16502807 60.06794698 91.23495567 56.43709527 93.30245972 52.80484009 C94.70983295 50.33270624 96.11861623 47.86137694 97.52734375 45.39001465 C98.54654004 43.60027996 99.56336456 41.80921233 100.58007812 40.01806641 C103.35133984 35.15305525 106.13030546 30.30990283 109.12695312 25.57958984 C109.55758057 24.89550049 109.98820801 24.21141113 110.43188477 23.5065918 C111.50994219 21.81559498 112.61201634 20.13996866 113.71679688 18.46630859 C115.62892385 14.2808751 115.75333264 11.96702429 115.12304688 7.38818359 C112.95113961 4.73661322 111.15631515 3.54815963 107.74510193 3.02001762 C104.66586048 2.85794373 101.61086201 2.83653578 98.52734375 2.85473633 C96.76802269 2.84181297 96.76802269 2.84181297 94.97315979 2.82862854 C91.09581441 2.80592391 87.21918909 2.81271592 83.34179688 2.82177734 C81.32884622 2.81913549 79.31591327 2.81394557 77.3029685 2.80847794 C70.97647349 2.79148988 64.65021974 2.79503406 58.32373047 2.81176758 C51.80184282 2.82869505 45.28062418 2.81284419 38.75880957 2.7805447 C33.15353116 2.75383843 27.54846088 2.74657528 21.94312525 2.75505978 C18.59770264 2.75998541 15.25300496 2.75569147 11.90757751 2.73727226 C8.17746984 2.71988332 4.44879941 2.73432445 0.71875 2.75708008 C-0.93966164 2.73954178 -0.93966164 2.73954178 -2.63157654 2.72164917 C-8.70924465 2.79721371 -12.19764692 2.99763218 -15.87695312 8.38818359 Z " fill="#030303" transform="translate(21.876953125,3.61181640625)"/>
<path d="M0 0 C10.56 0 21.12 0 32 0 C32 18.15 32 36.3 32 55 C26.44673 49.44673 24.51614372 45.12994648 24.390625 37.31640625 C24.36582062 36.26585304 24.36582062 36.26585304 24.34051514 35.19407654 C24.29239612 32.98345868 24.27074722 30.77352662 24.25 28.5625 C24.22180973 27.05270053 24.19187806 25.54293252 24.16015625 24.03320312 C24.08340421 20.3551644 24.04255898 16.67922415 24 13 C19.71 15.31 15.42 17.62 11 20 C10.34 18.35 9.68 16.7 9 15 C10.60194071 14.01719585 12.20663742 13.03888283 13.8125 12.0625 C14.70582031 11.51722656 15.59914063 10.97195312 16.51953125 10.41015625 C19 9 19 9 22 8 C15.73 7.67 9.46 7.34 3 7 C2.01 4.69 1.02 2.38 0 0 Z " fill="#0A0A0A" transform="translate(24,39)"/>
<path d="M0 0 C10.56 0 21.12 0 32 0 C31.01 2.31 30.02 4.62 29 7 C22.73 7.33 16.46 7.66 10 8 C16.435 11.465 16.435 11.465 23 15 C22.01 17.475 22.01 17.475 21 20 C16.71 17.69 12.42 15.38 8 13 C7.99742188 15.19398437 7.99484375 17.38796875 7.9921875 19.6484375 C7.96928001 21.80665046 7.93627707 23.96449401 7.90234375 26.12255859 C7.88433302 27.60619212 7.87658781 29.08999128 7.87988281 30.57373047 C7.8924414 39.88591979 7.37956287 47.58615756 1 55 C0.67 55 0.34 55 0 55 C0 36.85 0 18.7 0 0 Z " fill="#0A0A0A" transform="translate(87,39)"/>
<path d="M0 0 C8.49609375 -0.09765625 8.49609375 -0.09765625 11 0 C12 1 12 1 12.0625 3.03125 C12.02083333 4.67708333 11.97916667 6.32291667 11.9375 7.96875 C11.76775055 9.99609236 11.76775055 9.99609236 13 11 C13.25 13.9375 13.25 13.9375 13 17 C8.61501596 19.92332269 5.2225328 19.1356502 0 19 C0 12.73 0 6.46 0 0 Z " fill="#0C0C0C" transform="translate(24,14)"/>
<path d="M0 0 C3.3 0 6.6 0 10 0 C13 3 13 3 13.3125 6.5 C13 10 13 10 11 13 C11.80648688 16.65670531 11.80648688 16.65670531 13 20 C11.125 19.8125 11.125 19.8125 9 19 C8.29788106 17.34795544 7.63028587 15.68076231 7 14 C6.01 13.67 5.02 13.34 4 13 C4 15.31 4 17.62 4 20 C2.68 20 1.36 20 0 20 C0 13.4 0 6.8 0 0 Z " fill="#232223" transform="translate(41,13)"/>
<path d="M0 0 C4 1 4 1 5.484375 3.06640625 C6.65625 5.37760417 7.828125 7.68880208 9 10 C9.33 6.7 9.66 3.4 10 0 C10.99 0 11.98 0 13 0 C13 6.27 13 12.54 13 19 C12.01 19 11.02 19 10 19 C8.02 15.37 6.04 11.74 4 8 C3.67 11.63 3.34 15.26 3 19 C2.01 19 1.02 19 0 19 C0 12.73 0 6.46 0 0 Z " fill="#121112" transform="translate(106,14)"/>
<path d="M0 0 C1.32 0 2.64 0 4 0 C4.33 1.98 4.66 3.96 5 6 C6.1446875 4.515 6.1446875 4.515 7.3125 3 C8.61328125 1.3125 8.61328125 1.3125 10 0 C10.99 0 11.98 0 13 0 C11.79618552 2.49361571 10.54571278 4.68143083 9 7 C9.27370445 10.9687145 11.83902591 13.79339329 14 17 C14 17.66 14 18.32 14 19 C12.1875 18.8125 12.1875 18.8125 10 18 C7 13.82142857 7 13.82142857 7 11 C6.01 11.495 6.01 11.495 5 12 C4.59270772 14.32156597 4.25561323 16.6568787 4 19 C2.68 19 1.36 19 0 19 C0 12.73 0 6.46 0 0 Z " fill="#202020" transform="translate(58,14)"/>
<path d="M0 0 C1.875 0.1875 1.875 0.1875 4 1 C5.25 3.5625 5.25 3.5625 6 6 C7.95216435 4.04783565 8.84826645 2.46800047 10 0 C10.99 0 11.98 0 13 0 C12.80664062 0.53367187 12.61328125 1.06734375 12.4140625 1.6171875 C10.41302552 7.34292699 9.05915756 13.03133562 8 19 C7.01 19 6.02 19 5 19 C4.89042969 18.34773438 4.78085938 17.69546875 4.66796875 17.0234375 C3.72718902 11.83767606 2.51161747 7.68074165 0 3 C0 2.01 0 1.02 0 0 Z " fill="#121111" transform="translate(89,14)"/>
<path d="M0 0 C0.99 0 1.98 0 3 0 C3 5.61 3 11.22 3 17 C5.64 17 8.28 17 11 17 C11 17.99 11 18.98 11 20 C7.37 20 3.74 20 0 20 C0 13.4 0 6.8 0 0 Z " fill="#191818" transform="translate(76,13)"/>
<path d="M0 0 C0.66 0 1.32 0 2 0 C2 6.27 2 12.54 2 19 C1.01 19 0.02 19 -1 19 C-1.66 17.02 -2.32 15.04 -3 13 C-2.01 13 -1.02 13 0 13 C0 8.71 0 4.42 0 0 Z " fill="#020202" transform="translate(117,14)"/>
<path d="M0 0 C1.98 0 3.96 0 6 0 C6 2.31 6 4.62 6 7 C4.02 7 2.04 7 0 7 C0 4.69 0 2.38 0 0 Z " fill="#DEDEDE" transform="translate(44,16)"/>
<path d="M0 0 C1.98 0 3.96 0 6 0 C6.38218767 1.65614657 6.71395102 3.32457024 7 5 C6 6 6 6 2.9375 6.0625 C1.4834375 6.0315625 1.4834375 6.0315625 0 6 C0 4.02 0 2.04 0 0 Z " fill="#E5E4E4" transform="translate(27,24)"/>
<path d="M0 0 C1.98 0 3.96 0 6 0 C6 1.98 6 3.96 6 6 C4.02 6 2.04 6 0 6 C0 4.02 0 2.04 0 0 Z " fill="#E4E4E4" transform="translate(27,16)"/>
<path d="M0 0 C0.99 0 1.98 0 3 0 C3 2.31 3 4.62 3 7 C2.01 7 1.02 7 0 7 C0 4.69 0 2.38 0 0 Z " fill="#060606" transform="translate(94,26)"/>
</svg>
